<?xml version="1.0" encoding="UTF-8" standalone="no"?>
<svg width="16px" height="16px" viewBox="0 0 16 16" version="1.1" xmlns="http://www.w3.org/2000/svg" xmlns:xlink="http://www.w3.org/1999/xlink">
    <!-- Generator: Sketch 3.6.1 (26313) - http://www.bohemiancoding.com/sketch -->
    <title>Arrow - Right Copy</title>
    <desc>Created with Sketch.</desc>
    <defs></defs>
    <g id="-Style-Guide" stroke="none" stroke-width="1" fill="none" fill-rule="evenodd">
        <g id="-Style-Guide---Mobile" transform="translate(-278.000000, -236.000000)" fill="#2B2A31">
            <g id="Nav-Mobile-Drawer1" transform="translate(0.000000, 170.000000)">
                <g id="Arrow---Right-Copy" transform="translate(278.000000, 66.000000)">
                    <path d="M8,1.25 C11.728,1.25 14.75,4.272 14.75,8 C14.75,11.728 11.728,14.75 8,14.75 C4.272,14.75 1.25,11.728 1.25,8 C1.25,4.272 4.272,1.25 8,1.25 M8,16 C12.4185,16 16,12.4185 16,8 C16,3.5815 12.4185,0 8,0 C3.5815,0 0,3.5815 0,8 C0,12.4185 3.5815,16 8,16" id="Fill-1"></path>
                    <path d="M6.6465,11.3535 C6.842,11.549 7.158,11.549 7.3535,11.3535 L10.3535,8.3535 C10.549,8.158 10.549,7.842 10.3535,7.6465 L7.3535,4.6465 C7.256,4.549 7.128,4.5 7,4.5 C6.872,4.5 6.744,4.549 6.6465,4.6465 C6.451,4.842 6.451,5.158 6.6465,5.3535 L9.293,8 L6.6465,10.6465 C6.451,10.842 6.451,11.158 6.6465,11.3535" id="Fill-3"></path>
                </g>
            </g>
        </g>
    </g>
</svg>