<?xml version="1.0" encoding="UTF-8" standalone="no"?>
<svg width="16px" height="16px" viewBox="0 0 16 16" version="1.1" xmlns="http://www.w3.org/2000/svg" xmlns:xlink="http://www.w3.org/1999/xlink">
    <!-- Generator: Sketch 3.6.1 (26313) - http://www.bohemiancoding.com/sketch -->
    <title>Close-16px</title>
    <desc>Created with Sketch.</desc>
    <defs></defs>
    <g id="-Style-Guide" stroke="none" stroke-width="1" fill="none" fill-rule="evenodd">
        <g id="-Style-Guide---Mobile" transform="translate(-56.000000, -187.000000)" fill="#B0C5C8">
            <g id="Nav-Mobile-Drawer1" transform="translate(0.000000, 170.000000)">
                <g id="Menu-+-Rectangle-94" transform="translate(56.000000, 13.000000)">
                    <g id="Close-16px" transform="translate(0.000000, 4.000000)">
                        <path d="M10.47485,4.8181 L7.99985,7.2931 L5.52535,4.8181 L4.81835,5.5251 L7.29285,8.0001 L4.81835,10.4751 L5.52535,11.1821 L7.99985,8.7071 L10.47485,11.1821 L11.18185,10.4751 L8.70685,8.0001 L11.18185,5.5251 L10.47485,4.8181 Z" id="Fill-1"></path>
                        <path d="M8,14.75 C4.272,14.75 1.25,11.728 1.25,8 C1.25,4.272 4.272,1.25 8,1.25 C11.728,1.25 14.75,4.272 14.75,8 C14.75,11.728 11.728,14.75 8,14.75 M8,0 C3.5815,0 0,3.5815 0,8 C0,12.4185 3.5815,16 8,16 C12.4185,16 16,12.4185 16,8 C16,3.5815 12.4185,0 8,0" id="Fill-2"></path>
                    </g>
                </g>
            </g>
        </g>
    </g>
</svg>