<?xml version="1.0" encoding="utf-8"?>
<!-- Generator: Adobe Illustrator 19.1.0, SVG Export Plug-In . SVG Version: 6.00 Build 0)  -->
<!DOCTYPE svg PUBLIC "-//W3C//DTD SVG 1.1//EN" "http://www.w3.org/Graphics/SVG/1.1/DTD/svg11.dtd">
<svg version="1.1" id="Layer_1" xmlns="http://www.w3.org/2000/svg" xmlns:xlink="http://www.w3.org/1999/xlink" x="0px" y="0px"
	 viewBox="0 0 240.4 241.6" enable-background="new 0 0 240.4 241.6" xml:space="preserve">
<g id="tOQFNV_1_">
	<g>
		<path d="M166,241.6c0-31.3,0-61.8,0-92.8c10.3,0,20.3,0,30.8,0c1.6-12.2,3.1-23.8,4.7-36.1c-11.7,0-23.3,0-36.3,0
			c0.7-11.2,0.5-21.8,2.1-32.1c1.2-7.7,8.6-8.4,15-8.7c6.6-0.3,13.2-0.1,20.3-0.1c0-10.6,0.1-20.6-0.1-30.5c0-0.8-1.5-2.3-2.4-2.4
			c-13.1-0.9-26.2-2.6-39.3,0.5c-18.9,4.6-31.6,19.9-32.4,39.4c-0.3,9.2-0.2,18.3-0.2,27.5c0,1.8,0,3.6,0,5.9c-10.6,0-20.7,0-31.1,0
			c0,12.3,0,24,0,36.3c10.3,0,20.3,0,30.8,0c0,31.1,0,61.6,0,92.8c-1.5,0.1-3.1,0.2-4.7,0.2c-35.8,0-71.6,0-107.5,0
			c-10.6,0-15.7-4.9-15.7-15.5c0-69.6,0-139.3,0-208.9c0-10.6,5-15.5,15.7-15.5c69.5,0,139,0,208.4,0c10.7,0,15.6,4.9,15.6,15.5
			c0,69.6,0,139.3,0,208.9c0,10.6-5,15.4-15.7,15.5c-17.7,0-35.3,0-53,0C169.7,241.6,168.1,241.6,166,241.6z"/>
	</g>
</g>
</svg>
