<?xml version="1.0" encoding="utf-8"?>
<!-- Generator: Adobe Illustrator 19.1.0, SVG Export Plug-In . SVG Version: 6.00 Build 0)  -->
<!DOCTYPE svg PUBLIC "-//W3C//DTD SVG 1.1//EN" "http://www.w3.org/Graphics/SVG/1.1/DTD/svg11.dtd">
<svg version="1.1" id="Layer_1" xmlns="http://www.w3.org/2000/svg" xmlns:xlink="http://www.w3.org/1999/xlink" x="0px" y="0px"
	 viewBox="-3373 180.4 240.4 241.6" enable-background="new -3373 180.4 240.4 241.6" xml:space="preserve">
<g id="_x35_4MWmO_1_">
	<g>
		<path fill="#FFFFFF" d="M-3355.2,302.2c0-34.5,0-68.9,0-103.4c0-1.1,0-2.2,0-3.3c0.3-5.7,3.3-7.5,8.3-4.9
			c8.6,4.6,17.1,9.4,25.6,14.2c54.6,30.3,109.2,60.7,163.8,91.1c0.9,0.5,1.9,1.1,2.8,1.6c5.3,3.2,5.4,6.5,0,9.6
			c-13.4,7.5-26.8,14.9-40.2,22.4c-49.7,27.6-99.4,55.2-149.1,82.9c-1.4,0.8-2.7,1.6-4.1,2.2c-4.1,1.6-6.6,0-7.1-4.3
			c-0.2-1.5-0.1-3.1-0.1-4.7C-3355.2,371.1-3355.2,336.7-3355.2,302.2z"/>
	</g>
</g>
</svg>
