<?xml version="1.0" encoding="UTF-8" standalone="no"?>
<svg width="16px" height="16px" viewBox="0 0 16 16" version="1.1" xmlns="http://www.w3.org/2000/svg" xmlns:xlink="http://www.w3.org/1999/xlink">
    <!-- Generator: Sketch 3.6.1 (26313) - http://www.bohemiancoding.com/sketch -->
    <title>Search</title>
    <desc>Created with Sketch.</desc>
    <defs></defs>
    <g id="News" stroke="none" stroke-width="1" fill="none" fill-rule="evenodd">
        <g id="Newsroom" transform="translate(-499.000000, -714.000000)" fill="#444444">
            <g id="Search-Box" transform="translate(206.000000, 704.000000)">
                <g id="Search" transform="translate(293.000000, 10.000000)">
                    <path d="M8.7173,8.01 C8.5443,8.3025 8.3023,8.5445 8.0098,8.7175 C7.7128,8.8925 7.3703,9 6.9998,9 C5.8953,9 4.9998,8.1045 4.9998,7 C4.9998,5.8955 5.8953,5 6.9998,5 C8.1043,5 8.9998,5.8955 8.9998,7 C8.9998,7.37 8.8928,7.7125 8.7173,8.01 M11.8533,11.1465 L9.4433,8.7365 C9.7923,8.246 9.9998,7.6475 9.9998,7 C9.9998,5.3425 8.6568,4 6.9998,4 C5.3433,4 3.9998,5.3425 3.9998,7 C3.9998,8.657 5.3433,10 6.9998,10 C7.6478,10 8.2463,9.7925 8.7363,9.4435 L11.1463,11.8535 C11.3418,12.049 11.6583,12.049 11.8533,11.8535 C12.0488,11.658 12.0488,11.342 11.8533,11.1465" id="Fill-1"></path>
                    <path d="M8,14.75 C4.272,14.75 1.25,11.728 1.25,8 C1.25,4.272 4.272,1.25 8,1.25 C11.728,1.25 14.75,4.272 14.75,8 C14.75,11.728 11.728,14.75 8,14.75 M8,0 C3.5815,0 1.70530257e-13,3.5815 1.70530257e-13,8 C1.70530257e-13,12.4185 3.5815,16 8,16 C12.4185,16 16,12.4185 16,8 C16,3.5815 12.4185,0 8,0" id="Fill-3"></path>
                </g>
            </g>
        </g>
    </g>
</svg>