<?xml version="1.0" encoding="utf-8"?>
<!-- Generator: Adobe Illustrator 19.1.0, SVG Export Plug-In . SVG Version: 6.00 Build 0)  -->
<!DOCTYPE svg PUBLIC "-//W3C//DTD SVG 1.1//EN" "http://www.w3.org/Graphics/SVG/1.1/DTD/svg11.dtd">
<svg version="1.1" id="Layer_1" xmlns="http://www.w3.org/2000/svg" xmlns:xlink="http://www.w3.org/1999/xlink" x="0px" y="0px"
	 viewBox="0 0 226.1 33.1" enable-background="new 0 0 226.1 33.1" xml:space="preserve">
<g>
	<path fill="#FFFFFF" d="M79.7,14.7C79.9,14.4,93.5,0,93.5,0H80.6c0,0-12.2,11.2-12.7,11.7V0H55.7v33.1h12.2V26
		c0.1-0.1,2.3-2,2.5-2.2c0.2,0.3,7.6,9.3,7.6,9.3h16.4C94.5,33.1,79.8,14.9,79.7,14.7"/>
	<polygon fill="#FFFFFF" points="201.7,0 201.7,11.8 191.2,11.8 191.2,0 178.7,0 178.7,33 191.3,33 191.3,21 201.6,21 201.6,33 
		214.5,33 214.5,0 	"/>
	<path fill="#FFFFFF" d="M119.2,10.1v13.2c0,1.3-1,2.4-2.2,2.4h-7c-1.2,0-2.2-1.1-2.2-2.4V10.1c0-1.3,1-2.4,2.2-2.4h7
		C118.3,7.7,119.2,8.8,119.2,10.1 M124.3,0h-21.5c-4,0-7.3,3.7-7.3,8.3v16.4c0,4.6,3.3,8.3,7.3,8.3h21.5c4,0,7.3-3.7,7.3-8.3V8.3
		C131.6,3.7,128.3,0,124.3,0"/>
	<path fill="#FFFFFF" d="M172.9,12V9.5c0-3-1-5.9-2.8-7.7c-1.1-1.1-2.4-1.7-3.8-1.7h-22.6c-3.6,0-6.6,4.2-6.6,9.5v14.1
		c0,5.2,3,9.5,6.6,9.5h22.6c3.6,0,6.6-4.2,6.6-9.5v-3.8l-11.8,0l-0.3,3.2c-0.1,1.4-1,2.8-2.2,2.8h-6.9c-1.2,0-2.2-1.1-2.2-2.4V10.2
		c0-1.3,1-2.4,2.2-2.4h6.9c1.2,0,2.2,1.1,2.2,2.4V12H172.9z"/>
	<path fill="#FFFFFF" d="M217.1,28.7v0.7h1.4V33h0.8v-3.6h1.4v-0.7H217.1z M224.9,28.7l-1.1,3.1l-1.1-3.1h-1.2V33h0.8v-3.5l1.2,3.5
		h0.7l1.2-3.5V33h0.8v-4.3H224.9z"/>
	<g>
		<path fill-rule="evenodd" clip-rule="evenodd" fill="#FFFFFF" d="M21.8,0h-0.2H0v33l21.7,0c0,0-5.1-16.4-5.1-16.4
			C16.5,16.5,21.8,0,21.8,0z"/>
		<polygon fill-rule="evenodd" clip-rule="evenodd" fill="#FFFFFF" points="29.5,0.1 19.6,16.6 29.5,33.1 44.9,33.1 44.9,0.1 		"/>
	</g>
</g>
</svg>
