<?xml version="1.0" encoding="utf-8"?>
<!-- Generator: Adobe Illustrator 19.1.0, SVG Export Plug-In . SVG Version: 6.00 Build 0)  -->
<!DOCTYPE svg PUBLIC "-//W3C//DTD SVG 1.1//EN" "http://www.w3.org/Graphics/SVG/1.1/DTD/svg11.dtd">
<svg version="1.1" id="Layer_1" xmlns="http://www.w3.org/2000/svg" xmlns:xlink="http://www.w3.org/1999/xlink" x="0px" y="0px"
	 viewBox="-297 389 16 16" enable-background="new -297 389 16 16" xml:space="preserve">
<title>Left Arrow - 16px</title>
<desc>Created with Sketch.</desc>
<g id="_x2D_Style-Guide">
	<g id="_x2D_Style-Guide---Mobile" transform="translate(-96.000000, -689.000000)">
		<g id="Nav-Mobile-Drawer-2" transform="translate(0.000000, 672.000000)">
			<g id="Menu-_x2B_-Rectangle-94-Copy" transform="translate(96.000000, 13.000000)">
				<g id="Left-Arrow---16px" transform="translate(0.000000, 4.000000)">
					<path id="Fill-1" fill="#938F75" d="M-289,403.8c-3.7,0-6.8-3-6.8-6.8s3-6.8,6.8-6.8s6.8,3,6.8,6.8S-285.3,403.8-289,403.8
						 M-289,389c-4.4,0-8,3.6-8,8s3.6,8,8,8s8-3.6,8-8S-284.6,389-289,389"/>
					<path id="Fill-3" fill="#938F75" d="M-287.1,393.1c-0.2-0.2-0.5-0.2-0.7,0l-3,3c-0.2,0.2-0.2,0.5,0,0.7l3,3
						c0.1,0.1,0.2,0.1,0.4,0.1s0.3,0,0.4-0.1c0.2-0.2,0.2-0.5,0-0.7l-2.6-2.6l2.6-2.6C-287,393.7-287,393.3-287.1,393.1"/>
				</g>
			</g>
		</g>
	</g>
</g>
</svg>
