<?xml version="1.0" encoding="UTF-8" standalone="no"?>
<svg width="16px" height="16px" viewBox="0 0 16 16" version="1.1" xmlns="http://www.w3.org/2000/svg" xmlns:xlink="http://www.w3.org/1999/xlink">
    <!-- Generator: Sketch 3.6.1 (26313) - http://www.bohemiancoding.com/sketch -->
    <title>Left Arrow - 16px</title>
    <desc>Created with Sketch.</desc>
    <defs></defs>
    <g id="-Style-Guide" stroke="none" stroke-width="1" fill="none" fill-rule="evenodd">
        <g id="-Style-Guide---Mobile" transform="translate(-96.000000, -689.000000)" fill="#B0C5C8">
            <g id="Nav-Mobile-Drawer-2" transform="translate(0.000000, 672.000000)">
                <g id="Menu-+-Rectangle-94-Copy" transform="translate(96.000000, 13.000000)">
                    <g id="Left-Arrow---16px" transform="translate(0.000000, 4.000000)">
                        <path d="M8,14.75 C4.272,14.75 1.25,11.728 1.25,8 C1.25,4.272 4.272,1.25 8,1.25 C11.728,1.25 14.75,4.272 14.75,8 C14.75,11.728 11.728,14.75 8,14.75 M8,0 C3.5815,0 0,3.5815 0,8 C0,12.4185 3.5815,16 8,16 C12.4185,16 16,12.4185 16,8 C16,3.5815 12.4185,0 8,0" id="Fill-1"></path>
                        <path d="M9.853625,4.146625 C9.658125,3.951125 9.342125,3.951125 9.146625,4.146625 L6.146625,7.146625 C5.951125,7.342125 5.951125,7.658125 6.146625,7.853625 L9.146625,10.853625 C9.244125,10.951125 9.372125,11.000125 9.500125,11.000125 C9.628125,11.000125 9.756125,10.951125 9.853625,10.853625 C10.049125,10.658125 10.049125,10.342125 9.853625,10.146625 L7.207125,7.500125 L9.853625,4.853625 C10.049125,4.658125 10.049125,4.342125 9.853625,4.146625" id="Fill-3"></path>
                    </g>
                </g>
            </g>
        </g>
    </g>
</svg>