<?xml version="1.0" encoding="utf-8"?>
<!-- Generator: Adobe Illustrator 19.1.0, SVG Export Plug-In . SVG Version: 6.00 Build 0)  -->
<!DOCTYPE svg PUBLIC "-//W3C//DTD SVG 1.1//EN" "http://www.w3.org/Graphics/SVG/1.1/DTD/svg11.dtd">
<svg version="1.1" id="Layer_1" xmlns="http://www.w3.org/2000/svg" xmlns:xlink="http://www.w3.org/1999/xlink" x="0px" y="0px"
	 viewBox="0 0 240.4 241.6" enable-background="new 0 0 240.4 241.6" xml:space="preserve">
<g id="md3Ea3_1_">
	<g>
		<path d="M134.4,81.9c0,6.7,0,12.9,0,20.1c3-3.5,5.6-6.3,8-9.1c19.8-23.1,74.2-22.1,90,19.2c4.1,10.5,5.5,21.5,5.6,32.7
			c0.1,28.3,0,56.7,0,85c0,1-0.2,1.9-0.3,3.2c-16.6,0-33,0-50.2,0c0-1.7,0-3.5,0-5.2c0-25.4,0.2-50.8-0.1-76.2
			c-0.1-5.8-0.9-11.8-2.6-17.3c-4.8-15.5-22.9-21.8-36.6-12.9c-8.7,5.7-13.7,13.8-13.7,24.6c0,27.2,0,54.4,0,81.6c0,1.8,0,3.5,0,5.5
			c-16.9,0-33.2,0-50,0c0-50.3,0-100.6,0-151.2C101,81.9,117.4,81.9,134.4,81.9z"/>
		<path d="M5.7,81.8c16.8,0,33.1,0,49.8,0c0,50.4,0,100.7,0,151.3c-16.6,0-33,0-49.8,0C5.7,182.7,5.7,132.5,5.7,81.8z"/>
		<path d="M30.4,60.4c-20,0-32.8-16.6-26.6-34.8C6.1,18.7,10.9,14,17.4,11c15.7-7.4,35.3-0.2,40.2,14.6
			C63.6,44.2,50.9,60.4,30.4,60.4z"/>
	</g>
</g>
</svg>
