<?xml version="1.0" encoding="UTF-8" standalone="no"?>
<svg width="244px" height="658px" viewBox="0 0 244 658" version="1.1" xmlns="http://www.w3.org/2000/svg" xmlns:xlink="http://www.w3.org/1999/xlink">
    <!-- Generator: Sketch 3.6.1 (26313) - http://www.bohemiancoding.com/sketch -->
    <title>Page 1</title>
    <desc>Created with Sketch.</desc>
    <defs>
        <path id="path-1" d="M0,0.0950722433 L243.855,0.0950722433 L243.855,658 L0,658 L0,0.0950722433 Z"></path>
    </defs>
    <g id="Products-&amp;-Services" stroke="none" stroke-width="1" fill="none" fill-rule="evenodd">
        <g id="Biofuels-&amp;-Ingredients-v2" transform="translate(-1077.000000, -1480.000000)">
            <g id="Page-1" transform="translate(1077.000000, 1480.000000)">
                <path d="M80,460 L164,460 L164,457 L80,457 L80,460 Z" id="Fill-1" fill="#B6B28E"></path>
                <g id="Group-167">
                    <path d="M49.57525,646.517775 L49.57525,656.062528 L55.67025,656.062528 C57.37275,656.062528 58.71025,655.639706 59.68525,654.80157 C60.65775,653.958429 61.14525,652.780033 61.14525,651.266383 C61.14525,649.88033 60.70275,648.741965 59.82025,647.851288 C58.93525,646.963113 57.65275,646.517775 55.97275,646.517775 L49.57525,646.517775 Z M49.57525,644.914056 L54.89275,644.914056 C56.56275,644.914056 57.85775,644.546277 58.77275,643.810718 C59.68775,643.075159 60.14525,641.991836 60.14525,640.56325 C60.14525,639.10214 59.65775,638.003805 58.68525,637.268246 C57.71275,636.530186 56.29525,636.162406 54.43025,636.162406 L49.57525,636.162406 L49.57525,644.914056 Z M54.43025,634.543676 C56.83275,634.543676 58.70275,635.04906 60.04275,636.059828 C61.38025,637.070596 62.04775,638.594254 62.04775,640.625798 C62.04775,641.811699 61.71275,642.844984 61.04275,643.723151 C60.36775,644.601319 59.45775,645.211783 58.30275,645.549539 C59.71275,645.802231 60.85525,646.465235 61.73025,647.533547 C62.61025,648.601859 63.05025,649.837798 63.05025,651.233859 C63.05025,653.297927 62.38025,654.886634 61.04275,655.99998 C59.70275,657.110824 57.91275,657.666246 55.67025,657.666246 L45.10025,657.666246 L45.10025,656.267684 L47.68775,656.062528 L47.68775,636.162406 L45.10025,635.95725 L45.10025,634.543676 L47.68775,634.543676 L54.43025,634.543676 Z" id="Fill-2" fill="#444545"></path>
                    <path d="M66.3965,635.957 L66.3965,634.543426 L73.474,634.543426 L73.474,635.957 L70.889,636.164658 L70.889,656.062278 L73.474,656.269935 L73.474,657.665996 L66.3965,657.665996 L66.3965,656.269935 L68.984,656.062278 L68.984,636.164658 L66.3965,635.957 Z" id="Fill-4" fill="#444545"></path>
                    <path d="M94.53375,645.930329 C94.53375,642.933051 93.80375,640.508709 92.34375,638.657302 C90.88375,636.803393 88.91125,635.87769 86.42375,635.87769 C83.97875,635.87769 82.04625,636.803393 80.62375,638.657302 C79.20125,640.508709 78.48875,642.933051 78.48875,645.930329 L78.48875,646.263081 C78.48875,649.280374 79.20375,651.717226 80.63125,653.568633 C82.06125,655.422541 83.99625,656.348245 86.44125,656.348245 C88.94875,656.348245 90.92375,655.425043 92.36625,653.576138 C93.81125,651.729735 94.53375,649.292884 94.53375,646.263081 L94.53375,645.930329 Z M96.43875,646.263081 C96.43875,649.73572 95.51375,652.560367 93.65875,654.737021 C91.80875,656.911173 89.40125,657.9995 86.44125,657.9995 C83.52125,657.9995 81.14875,656.908671 79.32125,654.729515 C77.49875,652.547857 76.58375,649.725713 76.58375,646.263081 L76.58375,645.962853 C76.58375,642.500222 77.49625,639.675576 79.31375,637.488914 C81.13625,635.302252 83.50375,634.208922 86.42375,634.208922 C89.38625,634.208922 91.79375,635.302252 93.65125,637.488914 C95.50875,639.675576 96.43875,642.500222 96.43875,645.962853 L96.43875,646.263081 Z" id="Fill-6" fill="#444545"></path>
                    <path d="M99.32625,656.268935 L101.91125,656.061277 L101.91125,636.163657 L99.32625,635.955999 L99.32625,634.542425 L116.65625,634.542425 L116.65625,639.626288 L114.97375,639.626288 L114.82875,636.163657 L103.80125,636.163657 L103.80125,645.200524 L113.44875,645.200524 L113.44875,646.834265 L103.80125,646.834265 L103.80125,656.061277 L106.38625,656.268935 L106.38625,657.667497 L99.32625,657.667497 L99.32625,656.268935 Z" id="Fill-8" fill="#444545"></path>
                    <path d="M126.17675,634.543426 L126.17675,635.957 L123.58925,636.162156 L123.58925,650.217837 C123.58925,652.186833 124.17175,653.71049 125.33425,654.783806 C126.49925,655.859624 128.01675,656.39503 129.88925,656.39503 C131.79425,656.39503 133.34425,655.862125 134.53925,654.791312 C135.73425,653.723 136.33175,652.199342 136.33175,650.217837 L136.33175,636.162156 L133.74425,635.957 L133.74425,634.543426 L140.80925,634.543426 L140.80925,635.957 L138.21925,636.162156 L138.21925,650.217837 C138.21925,652.737251 137.45175,654.663715 135.91175,655.99973 C134.37175,657.333243 132.36675,657.998749 129.88925,657.998749 C127.45675,657.998749 125.48425,657.330741 123.96925,655.989722 C122.45925,654.651205 121.70175,652.727243 121.70175,650.217837 L121.70175,636.162156 L119.11425,635.957 L119.11425,634.543426 L121.70175,634.543426 L123.58925,634.543426 L126.17675,634.543426 Z" id="Fill-10" fill="#444545"></path>
                    <path d="M156.836,646.470239 L147.361,646.470239 L147.361,656.062528 L158.2785,656.062528 L158.4235,652.599897 L160.106,652.599897 L160.106,657.666246 L142.886,657.666246 L142.886,656.270186 L145.4735,656.062528 L145.4735,636.162406 L142.886,635.95725 L142.886,634.543676 L145.4735,634.543676 L160.0235,634.543676 L160.0235,639.625037 L158.3435,639.625037 L158.201,636.162406 L147.361,636.162406 L147.361,644.851509 L156.836,644.851509 L156.836,646.470239 Z" id="Fill-12" fill="#444545"></path>
                    <path d="M163.2935,657.666497 L163.2935,656.267934 L165.881,656.062778 L165.881,636.162656 L163.2935,635.9575 L163.2935,634.543926 L165.881,634.543926 L167.786,634.543926 L170.371,634.543926 L170.371,635.9575 L167.786,636.162656 L167.786,656.062778 L177.386,656.062778 L177.5285,652.807805 L179.211,652.807805 L179.211,657.666497 L163.2935,657.666497 Z" id="Fill-14" fill="#444545"></path>
                    <path d="M198.30075,641.404139 L196.74575,641.404139 L196.47825,638.131652 C195.90575,637.413607 195.12575,636.848177 194.14325,636.442869 C193.15825,636.035059 192.00575,635.829903 190.68325,635.829903 C188.77825,635.829903 187.29825,636.242717 186.23325,637.068344 C185.17075,637.893972 184.63825,638.922253 184.63825,640.150687 C184.63825,641.314071 185.11825,642.28731 186.07325,643.0629 C187.03075,643.843493 188.68825,644.529014 191.05075,645.119462 C193.53575,645.754945 195.42825,646.613097 196.72325,647.693919 C198.01825,648.772238 198.66575,650.198322 198.66575,651.964664 C198.66575,653.808565 197.91575,655.272177 196.41325,656.363006 C194.91075,657.456337 192.99075,657.999249 190.65075,657.999249 C189.00075,657.999249 187.47075,657.709029 186.06075,657.126086 C184.64575,656.543143 183.49075,655.712512 182.59075,654.634192 L182.59075,650.583614 L184.14575,650.583614 L184.41575,653.966185 C185.11575,654.759287 186.00825,655.364748 187.09825,655.777561 C188.18825,656.190375 189.37325,656.395531 190.65075,656.395531 C192.47325,656.395531 193.94575,655.995227 195.07325,655.189614 C196.19825,654.384002 196.76325,653.320694 196.76325,651.997189 C196.76325,650.73623 196.29075,649.707949 195.34825,648.907341 C194.40825,648.109234 192.76825,647.401196 190.43075,646.78823 C187.90325,646.152748 185.98575,645.32712 184.68575,644.311348 C183.38325,643.293075 182.73325,641.924535 182.73325,640.198223 C182.73325,638.429379 183.47325,636.988284 184.95575,635.87744 C186.43575,634.766595 188.34825,634.211173 190.68325,634.211173 C192.36575,634.211173 193.86825,634.501394 195.18325,635.084337 C196.50075,635.66728 197.53825,636.452877 198.30075,637.448633 L198.30075,641.404139 Z" id="Fill-16" fill="#444545"></path>
                    <path d="M75.20025,593.532012 L74.90525,590.439662 L62.15025,590.439662 L60.82775,603.179343 C61.72525,602.361221 62.71525,601.730742 63.79525,601.287906 C64.87275,600.847571 66.33775,600.602385 68.18525,600.552347 C71.22525,600.502309 73.68025,601.525586 75.54525,603.619678 C77.40775,605.716271 78.34025,608.53091 78.34025,612.066096 C78.34025,615.681343 77.43275,618.568537 75.61775,620.730179 C73.80025,622.88932 71.08025,623.970141 67.44775,623.970141 C64.50775,623.970141 62.05525,623.147016 60.10275,621.503267 C58.15025,619.857016 57.21275,617.425168 57.29525,614.200217 L57.34275,614.052605 L59.96775,614.052605 C59.96775,616.459434 60.64775,618.298332 62.00525,619.576803 C63.36275,620.852773 65.17525,621.490757 67.44775,621.490757 C70.11525,621.490757 72.10525,620.687647 73.42275,619.083929 C74.73775,617.482712 75.39525,615.158446 75.39525,612.113632 C75.39525,609.446605 74.73775,607.30748 73.42275,605.693754 C72.10525,604.082529 70.26025,603.276917 67.89025,603.276917 C65.60025,603.276917 63.85525,603.642195 62.65275,604.370248 C61.45275,605.098301 60.58025,606.196636 60.04275,607.670256 L57.66025,607.277457 L59.62525,587.715092 L77.58025,587.715092 L77.58025,593.532012 L75.20025,593.532012 Z" id="Fill-18" fill="#C98429"></path>
                    <path d="M103.38375,601.117276 C103.38375,597.451991 102.68375,594.632348 101.28625,592.66085 C99.88875,590.689352 97.85625,589.703603 95.19125,589.703603 C92.54125,589.703603 90.52125,590.691854 89.13125,592.67336 C87.74125,594.652363 87.04625,597.469504 87.04625,601.117276 L87.04625,610.029048 C87.04625,613.661808 87.75375,616.478949 89.16875,618.482972 C90.58375,620.489497 92.60625,621.492759 95.23875,621.492759 C97.88875,621.492759 99.90625,620.4945 101.29875,618.495481 C102.68875,616.498964 103.38375,613.67682 103.38375,610.029048 L103.38375,601.117276 Z M106.32625,609.586211 C106.32625,614.199717 105.34875,617.752417 103.39625,620.239306 C101.44125,622.726196 98.72375,623.969641 95.23875,623.969641 C91.77125,623.969641 89.05625,622.723694 87.08375,620.226797 C85.11125,617.732402 84.12875,614.184706 84.12875,609.586211 L84.12875,601.607649 C84.12875,597.009154 85.10375,593.456455 87.06125,590.954554 C89.01375,588.450151 91.72375,587.1992 95.19125,587.1992 C98.67375,587.1992 101.39875,588.450151 103.37125,590.954554 C105.34125,593.456455 106.32625,597.009154 106.32625,601.607649 L106.32625,609.586211 Z" id="Fill-20" fill="#C98429"></path>
                    <path d="M124.5995,591.566519 L120.702,600.998686 L120.1195,600.998686 L116.2395,591.566519 L116.2395,600.998686 L114.8145,600.998686 L114.8145,589.537477 L116.857,589.537477 L120.4095,598.164032 L123.982,589.537477 L126.0245,589.537477 L126.0245,600.998686 L124.5995,600.998686 L124.5995,591.566519 Z" id="Fill-22" fill="#929076"></path>
                    <mask id="mask-2" fill="white">
                        <use xlink:href="#path-1"></use>
                    </mask>
                    <g id="Clip-25"></g>
                    <path d="M128.71,589.537977 L130.135,589.537977 L130.135,600.996684 L128.71,600.996684 L128.71,589.537977 Z" id="Fill-24" fill="#929076" mask="url(#mask-2)"></path>
                    <path d="M132.8175,589.538478 L134.24,589.538478 L134.24,599.726219 L139.5625,599.726219 L139.5625,600.997185 L132.8175,600.997185 L132.8175,589.538478 Z" id="Fill-26" fill="#929076" mask="url(#mask-2)"></path>
                    <path d="M141.57725,589.538478 L143.00225,589.538478 L143.00225,599.726219 L148.32225,599.726219 L148.32225,600.997185 L141.57725,600.997185 L141.57725,589.538478 Z" id="Fill-27" fill="#929076" mask="url(#mask-2)"></path>
                    <path d="M150.34,589.537977 L151.7625,589.537977 L151.7625,600.996684 L150.34,600.996684 L150.34,589.537977 Z" id="Fill-28" fill="#929076" mask="url(#mask-2)"></path>
                    <path d="M159.663,590.6208 C157.088,590.6208 155.4555,592.597302 155.4555,595.276838 C155.4555,597.938861 157.088,599.932876 159.663,599.932876 C162.218,599.932876 163.868,597.938861 163.868,595.276838 C163.868,592.597302 162.218,590.6208 159.663,590.6208 M159.663,589.349834 C163.0455,589.349834 165.343,591.891766 165.343,595.276838 C165.343,598.66191 163.0455,601.203842 159.663,601.203842 C156.2655,601.203842 153.9805,598.66191 153.9805,595.276838 C153.9805,591.891766 156.2655,589.349834 159.663,589.349834" id="Fill-29" fill="#929076" mask="url(#mask-2)"></path>
                    <path d="M169.00875,591.85849 L169.00875,600.997935 L167.58625,600.997935 L167.58625,589.539228 L169.04375,589.539228 L175.63375,598.488529 L175.63375,589.539228 L177.06125,589.539228 L177.06125,600.997935 L175.68625,600.997935 L169.00875,591.85849 Z" id="Fill-30" fill="#929076" mask="url(#mask-2)"></path>
                    <path d="M120.23925,609.365544 C122.26675,609.365544 123.67175,610.258722 124.68425,611.512175 L123.55175,612.217711 C122.83175,611.289506 121.61425,610.63651 120.23925,610.63651 C117.73425,610.63651 115.82675,612.560471 115.82675,615.292548 C115.82675,618.00711 117.73425,619.963597 120.23925,619.963597 C121.61425,619.963597 122.74675,619.295589 123.31175,618.727658 L123.31175,616.390882 L119.38175,616.390882 L119.38175,615.119916 L124.73675,615.119916 L124.73675,619.260563 C123.67175,620.446464 122.10925,621.237065 120.23925,621.237065 C116.97675,621.237065 114.35175,618.847749 114.35175,615.292548 C114.35175,611.734844 116.97675,609.365544 120.23925,609.365544" id="Fill-31" fill="#929076" mask="url(#mask-2)"></path>
                    <path d="M128.88175,617.198746 L133.73925,617.198746 L131.32175,611.03156 L128.88175,617.198746 Z M134.16925,618.469712 L128.46925,618.469712 L127.45925,621.011643 L125.82675,621.011643 L130.42675,609.552936 L132.19425,609.552936 L136.81425,621.011643 L135.18425,621.011643 L134.16925,618.469712 Z" id="Fill-32" fill="#929076" mask="url(#mask-2)"></path>
                    <path d="M138.3155,609.553687 L139.738,609.553687 L139.738,619.741428 L145.0605,619.741428 L145.0605,621.012394 L138.3155,621.012394 L138.3155,609.553687 Z" id="Fill-33" fill="#929076" mask="url(#mask-2)"></path>
                    <path d="M147.07525,609.553687 L148.49775,609.553687 L148.49775,619.741428 L153.82025,619.741428 L153.82025,621.012394 L147.07525,621.012394 L147.07525,609.553687 Z" id="Fill-34" fill="#929076" mask="url(#mask-2)"></path>
                    <path d="M160.47125,610.636009 C157.89625,610.636009 156.26375,612.612511 156.26375,615.292047 C156.26375,617.95407 157.89625,619.948085 160.47125,619.948085 C163.02625,619.948085 164.67625,617.95407 164.67625,615.292047 C164.67625,612.612511 163.02625,610.636009 160.47125,610.636009 M160.47125,609.365043 C163.85375,609.365043 166.15125,611.906975 166.15125,615.292047 C166.15125,618.677119 163.85375,621.219051 160.47125,621.219051 C157.07375,621.219051 154.78875,618.677119 154.78875,615.292047 C154.78875,611.906975 157.07375,609.365043 160.47125,609.365043" id="Fill-35" fill="#929076" mask="url(#mask-2)"></path>
                    <path d="M169.817,611.8737 L169.817,621.013144 L168.3945,621.013144 L168.3945,609.554437 L169.852,609.554437 L176.442,618.503738 L176.442,609.554437 L177.8695,609.554437 L177.8695,621.013144 L176.4945,621.013144 L169.817,611.8737 Z" id="Fill-36" fill="#929076" mask="url(#mask-2)"></path>
                    <path d="M180.708,618.315344 C181.4655,619.155983 182.7005,619.946584 184.313,619.946584 C186.358,619.946584 187.0105,618.848249 187.0105,617.972584 C187.0105,616.596538 185.618,616.221253 184.108,615.80844 C182.2705,615.325573 180.2305,614.810181 180.2305,612.560972 C180.2305,610.669535 181.9105,609.383557 184.1605,609.383557 C185.9105,609.383557 187.2655,609.9665 188.228,610.97977 L187.3705,612.028067 C186.5105,611.082348 185.3105,610.652021 184.058,610.652021 C182.683,610.652021 181.703,611.392584 181.703,612.475907 C181.703,613.62428 183.028,613.969542 184.4855,614.364843 C186.358,614.862721 188.4855,615.448166 188.4855,617.849991 C188.4855,619.518759 187.353,621.220052 184.263,621.220052 C182.2705,621.220052 180.813,620.461976 179.868,619.398668 L180.708,618.315344 Z" id="Fill-37" fill="#929076" mask="url(#mask-2)"></path>
                    <path d="M122.0995,489.723881 C100.352,489.723881 82.657,507.432337 82.657,529.196375 C82.657,550.962915 100.352,568.671371 122.0995,568.671371 C143.847,568.671371 161.542,550.962915 161.542,529.196375 C161.542,507.432337 143.847,489.723881 122.0995,489.723881 M122.0995,571.798748 C98.627,571.798748 79.532,552.686725 79.532,529.196375 C79.532,505.708527 98.627,486.596504 122.0995,486.596504 C145.572,486.596504 164.667,505.708527 164.667,529.196375 C164.667,552.686725 145.572,571.798748 122.0995,571.798748" id="Fill-38" fill="#C98429" mask="url(#mask-2)"></path>
                    <path d="M122.2095,507.172389 C118.4745,511.663302 107.042,526.216861 107.042,536.01931 C107.042,544.330625 113.797,551.090762 122.0995,551.090762 C130.402,551.090762 137.157,544.330625 137.157,536.01931 C137.157,525.879104 125.9145,511.603256 122.2095,507.172389 M122.0995,554.218138 C112.072,554.218138 103.917,546.054435 103.917,536.01931 C103.917,523.177051 120.337,504.51537 121.0345,503.727271 C121.3295,503.392017 121.7545,503.201872 122.1995,503.201872 C122.6745,503.284435 123.0695,503.389515 123.3695,503.722268 C124.057,504.492853 140.282,522.75423 140.282,536.01931 C140.282,546.054435 132.127,554.218138 122.0995,554.218138" id="Fill-39" fill="#C98429" mask="url(#mask-2)"></path>
                    <path d="M122.0995,560.197432 C121.237,560.197432 120.537,559.4969 120.537,558.633744 L120.537,523.054208 C120.537,522.191052 121.237,521.490519 122.0995,521.490519 C122.962,521.490519 123.662,522.191052 123.662,523.054208 L123.662,558.633744 C123.662,559.4969 122.962,560.197432 122.0995,560.197432" id="Fill-40" fill="#C98429" mask="url(#mask-2)"></path>
                    <path d="M121.84075,545.458482 C121.46825,545.458482 121.09325,545.325881 120.79575,545.058178 L115.51075,540.299562 C114.86825,539.721623 114.81575,538.733372 115.39325,538.090383 C115.97075,537.447395 116.96075,537.397357 117.60075,537.972794 L122.88575,542.73141 C123.52825,543.309349 123.57825,544.2976 123.00325,544.940589 C122.69325,545.283349 122.26825,545.458482 121.84075,545.458482" id="Fill-41" fill="#C98429" mask="url(#mask-2)"></path>
                    <path d="M122.36325,545.458482 C121.93575,545.458482 121.51075,545.283349 121.20075,544.940589 C120.62575,544.2976 120.67575,543.309349 121.31825,542.73141 L126.60325,537.972794 C127.24075,537.397357 128.23075,537.447395 128.81075,538.090383 C129.38825,538.733372 129.33575,539.721623 128.69325,540.299562 L123.40825,545.058178 C123.11075,545.325881 122.73575,545.458482 122.36325,545.458482" id="Fill-42" fill="#C98429" mask="url(#mask-2)"></path>
                    <path d="M121.84075,534.789875 C121.46825,534.789875 121.09325,534.657275 120.79575,534.389571 L115.51075,529.630955 C114.86825,529.053016 114.81575,528.064765 115.39325,527.421776 C115.97075,526.778788 116.96075,526.726248 117.60075,527.304187 L122.88575,532.062803 C123.52825,532.640742 123.57825,533.628993 123.00325,534.271982 C122.69325,534.614742 122.26825,534.789875 121.84075,534.789875" id="Fill-43" fill="#C98429" mask="url(#mask-2)"></path>
                    <path d="M122.36325,534.789875 C121.93575,534.789875 121.51075,534.614742 121.20075,534.271982 C120.62575,533.628993 120.67575,532.640742 121.31825,532.062803 L126.60325,527.304187 C127.24075,526.726248 128.23075,526.778788 128.81075,527.421776 C129.38825,528.064765 129.33575,529.053016 128.69325,529.630955 L123.40825,534.389571 C123.11075,534.657275 122.73575,534.789875 122.36325,534.789875" id="Fill-44" fill="#C98429" mask="url(#mask-2)"></path>
                    <path d="M59.49225,161.334845 L50.01975,161.334845 L50.01975,170.927134 L60.93725,170.927134 L61.07975,167.464503 L62.76225,167.464503 L62.76225,172.530852 L45.54475,172.530852 L45.54475,171.134792 L48.12975,170.927134 L48.12975,151.027012 L45.54475,150.821856 L45.54475,149.408282 L48.12975,149.408282 L62.68225,149.408282 L62.68225,154.489643 L61.00225,154.489643 L60.85725,151.027012 L50.01975,151.027012 L50.01975,159.716115 L59.49225,159.716115 L59.49225,161.334845 Z" id="Fill-45" fill="#444545" mask="url(#mask-2)"></path>
                    <path d="M84.47025,149.408032 L84.47025,154.284237 L82.78775,154.284237 L82.64775,151.026762 L76.23525,151.026762 L76.23525,170.926884 L78.82025,171.134541 L78.82025,172.530602 L71.74275,172.530602 L71.74275,171.134541 L74.33025,170.926884 L74.33025,151.026762 L67.92025,151.026762 L67.79275,154.284237 L66.09275,154.284237 L66.09275,149.408032 L84.47025,149.408032 Z" id="Fill-46" fill="#444545" mask="url(#mask-2)"></path>
                    <path d="M86.582,150.821356 L86.582,149.407782 L93.642,149.407782 L93.642,150.821356 L91.057,151.029014 L91.057,160.271037 L104.197,160.271037 L104.197,151.029014 L101.6095,150.821356 L101.6095,149.407782 L104.197,149.407782 L106.0845,149.407782 L108.672,149.407782 L108.672,150.821356 L106.0845,151.029014 L106.0845,170.926633 L108.672,171.134291 L108.672,172.530352 L101.6095,172.530352 L101.6095,171.134291 L104.197,170.926633 L104.197,161.889767 L91.057,161.889767 L91.057,170.926633 L93.642,171.134291 L93.642,172.530352 L86.582,172.530352 L86.582,171.134291 L89.167,170.926633 L89.167,151.029014 L86.582,150.821356 Z" id="Fill-47" fill="#444545" mask="url(#mask-2)"></path>
                    <path d="M116.9385,164.098195 L126.0635,164.098195 L121.5735,151.868902 L121.476,151.868902 L116.9385,164.098195 Z M110.7185,171.133541 L112.416,171.005944 L120.621,149.407031 L122.4135,149.407031 L130.5385,171.005944 L132.2685,171.133541 L132.2685,172.532103 L126.5735,172.532103 L126.5735,171.133541 L128.586,170.975921 L126.681,165.796986 L116.3035,165.796986 L114.386,170.975921 L116.3985,171.133541 L116.3985,172.532103 L110.7185,172.532103 L110.7185,171.133541 Z" id="Fill-48" fill="#444545" mask="url(#mask-2)"></path>
                    <path d="M156.72375,149.408032 L156.72375,150.821606 L154.13625,151.026762 L154.13625,172.530602 L152.24875,172.530602 L139.12375,152.647994 L139.02875,152.663005 L139.02875,170.926884 L141.61625,171.134541 L141.61625,172.530602 L134.53875,172.530602 L134.53875,171.134541 L137.12375,170.926884 L137.12375,151.026762 L134.53875,150.821606 L134.53875,149.408032 L137.12375,149.408032 L139.02875,149.408032 L152.15375,169.260617 L152.24875,169.243104 L152.24875,151.026762 L149.66125,150.821606 L149.66125,149.408032 L154.13625,149.408032 L156.72375,149.408032 Z" id="Fill-49" fill="#444545" mask="url(#mask-2)"></path>
                    <path d="M177.417,160.794684 C177.417,157.797407 176.687,155.373065 175.227,153.521658 C173.767,151.667749 171.7945,150.742046 169.307,150.742046 C166.862,150.742046 164.9295,151.667749 163.507,153.521658 C162.0845,155.373065 161.372,157.797407 161.372,160.794684 L161.372,161.127437 C161.372,164.14473 162.087,166.581582 163.5145,168.432989 C164.9445,170.286897 166.8795,171.212601 169.3245,171.212601 C171.832,171.212601 173.807,170.289399 175.2495,168.440494 C176.6945,166.594091 177.417,164.15724 177.417,161.127437 L177.417,160.794684 Z M179.322,161.127437 C179.322,164.600076 178.397,167.424722 176.542,169.601376 C174.692,171.775529 172.2845,172.863856 169.3245,172.863856 C166.4045,172.863856 164.032,171.773027 162.2045,169.593871 C160.382,167.412213 159.467,164.590068 159.467,161.127437 L159.467,160.827209 C159.467,157.364578 160.3795,154.539932 162.197,152.35327 C164.0195,150.166608 166.387,149.073278 169.307,149.073278 C172.2695,149.073278 174.677,150.166608 176.5345,152.35327 C178.392,154.539932 179.322,157.364578 179.322,160.827209 L179.322,161.127437 Z" id="Fill-50" fill="#444545" mask="url(#mask-2)"></path>
                    <path d="M182.2095,172.531103 L182.2095,171.13254 L184.7945,170.927384 L184.7945,151.027262 L182.2095,150.822106 L182.2095,149.408532 L184.7945,149.408532 L186.6995,149.408532 L189.287,149.408532 L189.287,150.822106 L186.6995,151.027262 L186.6995,170.927384 L196.302,170.927384 L196.442,167.672411 L198.1245,167.672411 L198.1245,172.531103 L182.2095,172.531103 Z" id="Fill-51" fill="#444545" mask="url(#mask-2)"></path>
                    <path d="M61.81875,110.958315 C61.81875,108.896748 61.09125,107.182946 59.63625,105.814406 C58.18125,104.448368 56.38125,103.765349 54.24125,103.765349 C52.03375,103.765349 50.22625,104.420847 48.82125,105.729341 C47.41125,107.037836 46.71125,108.781661 46.71125,110.958315 C46.71125,113.069919 47.41125,114.758703 48.82125,116.027167 C50.22625,117.29563 52.04875,117.928611 54.28875,117.928611 C56.46375,117.928611 58.26375,117.29563 59.68375,116.027167 C61.10875,114.758703 61.81875,113.069919 61.81875,110.958315 M62.82375,128.066315 C62.82375,125.8096 62.00375,123.973205 60.36125,122.557129 C58.71875,121.141052 56.67625,120.433014 54.24125,120.433014 C51.75625,120.433014 49.71125,121.141052 48.10875,122.557129 C46.50625,123.973205 45.70625,125.8096 45.70625,128.066315 C45.70625,130.408094 46.49625,132.239486 48.08375,133.565494 C49.67125,134.891501 51.73875,135.554505 54.28875,135.554505 C56.75875,135.554505 58.79875,134.886497 60.41125,133.552984 C62.01875,132.219471 62.82375,130.390581 62.82375,128.066315 M64.73875,110.983334 C64.73875,112.9123 64.17625,114.603585 63.05875,116.052186 C61.93875,117.500786 60.43625,118.551585 58.55625,119.204581 C60.71625,119.877592 62.45375,120.998444 63.76875,122.569638 C65.08625,124.140832 65.74375,125.964718 65.74375,128.043798 C65.74375,131.251235 64.67375,133.71811 62.53125,135.444421 C60.38875,137.170733 57.64125,138.033889 54.28875,138.033889 C50.85375,138.033889 48.07875,137.175737 45.96125,135.456931 C43.84625,133.738125 42.78625,131.266246 42.78625,128.043798 C42.78625,125.932193 43.43375,124.093296 44.72375,122.53211 C46.01625,120.968421 47.74875,119.852573 49.92375,119.182064 C48.04125,118.526566 46.55125,117.478269 45.44625,116.039676 C44.34375,114.598581 43.79125,112.9123 43.79125,110.983334 C43.79125,107.905995 44.76125,105.51668 46.69875,103.815387 C48.63625,102.111592 51.14875,101.263448 54.24125,101.263448 C57.29625,101.263448 59.81125,102.116596 61.78125,103.825395 C63.75125,105.536695 64.73875,107.923509 64.73875,110.983334" id="Fill-52" fill="#C98429" mask="url(#mask-2)"></path>
                    <path d="M70.6495,137.517747 L70.6495,135.25853 L82.352,121.980941 C84.527,119.524074 86.057,117.480021 86.952,115.841275 C87.842,114.207534 88.287,112.63634 88.287,111.130195 C88.287,108.921017 87.657,107.139663 86.3995,105.791138 C85.1395,104.440112 83.372,103.764598 81.0995,103.764598 C78.387,103.764598 76.327,104.517671 74.9195,106.023815 C73.5145,107.52996 72.8095,109.541488 72.8095,112.063405 L70.0845,112.063405 L70.037,111.915792 C69.957,108.936028 70.9145,106.416614 72.9195,104.355047 C74.922,102.290979 77.6495,101.262697 81.0995,101.262697 C84.1745,101.262697 86.632,102.145868 88.472,103.912211 C90.3095,105.678553 91.2295,108.052857 91.2295,111.032621 C91.2295,112.994112 90.612,114.988127 89.377,117.009663 C88.142,119.028697 86.4295,121.28291 84.2395,123.772302 L74.3795,134.91577 L74.4295,135.038363 L90.002,135.038363 L90.2495,130.00704 L92.8495,130.00704 L92.8495,137.517747 L70.6495,137.517747 Z" id="Fill-53" fill="#C98429" mask="url(#mask-2)"></path>
                    <path d="M117.7685,115.180273 C117.7685,111.514988 117.071,108.695345 115.671,106.723847 C114.276,104.752349 112.241,103.7666 109.5785,103.7666 C106.926,103.7666 104.906,104.754851 103.5185,106.736357 C102.1285,108.71536 101.4335,111.532501 101.4335,115.180273 L101.4335,124.092045 C101.4335,127.724805 102.141,130.541946 103.5535,132.545969 C104.9685,134.552494 106.991,135.555756 109.626,135.555756 C112.276,135.555756 114.2935,134.557497 115.6835,132.558478 C117.0735,130.561961 117.7685,127.739817 117.7685,124.092045 L117.7685,115.180273 Z M120.7135,123.649208 C120.7135,128.262714 119.736,131.815414 117.781,134.302303 C115.8285,136.789193 113.1085,138.032638 109.626,138.032638 C106.1585,138.032638 103.441,136.786691 101.4685,134.289794 C99.4985,131.795398 98.5135,128.247703 98.5135,123.649208 L98.5135,115.670646 C98.5135,111.072151 99.491,107.519452 101.446,105.017551 C103.3985,102.513148 106.1085,101.262197 109.5785,101.262197 C113.0585,101.262197 115.786,102.513148 117.756,105.017551 C119.726,107.519452 120.7135,111.072151 120.7135,115.670646 L120.7135,123.649208 Z" id="Fill-54" fill="#C98429" mask="url(#mask-2)"></path>
                    <path d="M138.9845,106.115885 L135.087,115.548052 L134.5045,115.548052 L130.6245,106.115885 L130.6245,115.548052 L129.1995,115.548052 L129.1995,104.086843 L131.242,104.086843 L134.7945,112.713398 L138.367,104.086843 L140.4095,104.086843 L140.4095,115.548052 L138.9845,115.548052 L138.9845,106.115885 Z" id="Fill-55" fill="#929076" mask="url(#mask-2)"></path>
                    <path d="M143.095,104.089095 L144.52,104.089095 L144.52,115.547802 L143.095,115.547802 L143.095,104.089095 Z" id="Fill-56" fill="#929076" mask="url(#mask-2)"></path>
                    <path d="M147.20225,104.087844 L148.62475,104.087844 L148.62475,114.275586 L153.94725,114.275586 L153.94725,115.546551 L147.20225,115.546551 L147.20225,104.087844 Z" id="Fill-57" fill="#929076" mask="url(#mask-2)"></path>
                    <path d="M155.962,104.087844 L157.387,104.087844 L157.387,114.275586 L162.707,114.275586 L162.707,115.546551 L155.962,115.546551 L155.962,104.087844 Z" id="Fill-58" fill="#929076" mask="url(#mask-2)"></path>
                    <path d="M164.725,104.089095 L166.1475,104.089095 L166.1475,115.547802 L164.725,115.547802 L164.725,104.089095 Z" id="Fill-59" fill="#929076" mask="url(#mask-2)"></path>
                    <path d="M174.04775,105.170167 C171.47275,105.170167 169.84025,107.146668 169.84025,109.826205 C169.84025,112.488227 171.47275,114.482243 174.04775,114.482243 C176.60275,114.482243 178.25275,112.488227 178.25275,109.826205 C178.25275,107.146668 176.60275,105.170167 174.04775,105.170167 M174.04775,103.899201 C177.43025,103.899201 179.72775,106.441132 179.72775,109.826205 C179.72775,113.211277 177.43025,115.753208 174.04775,115.753208 C170.65025,115.753208 168.36525,113.211277 168.36525,109.826205 C168.36525,106.441132 170.65025,103.899201 174.04775,103.899201" id="Fill-60" fill="#929076" mask="url(#mask-2)"></path>
                    <path d="M183.3935,106.407857 L183.3935,115.547302 L181.971,115.547302 L181.971,104.088595 L183.4285,104.088595 L190.0185,113.037895 L190.0185,104.088595 L191.446,104.088595 L191.446,115.547302 L190.071,115.547302 L183.3935,106.407857 Z" id="Fill-61" fill="#929076" mask="url(#mask-2)"></path>
                    <path d="M134.624,123.91491 C136.6515,123.91491 138.0565,124.808089 139.069,126.061541 L137.9365,126.767078 C137.2165,125.838872 135.999,125.185876 134.624,125.185876 C132.119,125.185876 130.2115,127.109838 130.2115,129.841914 C130.2115,132.556477 132.119,134.512963 134.624,134.512963 C135.999,134.512963 137.1315,133.844956 137.6965,133.277024 L137.6965,130.940249 L133.7665,130.940249 L133.7665,129.669283 L139.1215,129.669283 L139.1215,133.809929 C138.0565,134.99583 136.494,135.786431 134.624,135.786431 C131.3615,135.786431 128.7365,133.397116 128.7365,129.841914 C128.7365,126.284211 131.3615,123.91491 134.624,123.91491" id="Fill-62" fill="#929076" mask="url(#mask-2)"></path>
                    <path d="M143.2665,131.748113 L148.124,131.748113 L145.7065,125.580926 L143.2665,131.748113 Z M148.554,133.019078 L142.854,133.019078 L141.844,135.56101 L140.2115,135.56101 L144.8115,124.102303 L146.579,124.102303 L151.199,135.56101 L149.569,135.56101 L148.554,133.019078 Z" id="Fill-63" fill="#929076" mask="url(#mask-2)"></path>
                    <path d="M152.70025,124.103053 L154.12275,124.103053 L154.12275,134.290795 L159.44525,134.290795 L159.44525,135.56176 L152.70025,135.56176 L152.70025,124.103053 Z" id="Fill-64" fill="#929076" mask="url(#mask-2)"></path>
                    <path d="M161.46,124.103053 L162.8825,124.103053 L162.8825,134.290795 L168.205,134.290795 L168.205,135.56176 L161.46,135.56176 L161.46,124.103053 Z" id="Fill-65" fill="#929076" mask="url(#mask-2)"></path>
                    <path d="M174.856,125.185376 C172.281,125.185376 170.6485,127.161878 170.6485,129.841414 C170.6485,132.503437 172.281,134.497452 174.856,134.497452 C177.411,134.497452 179.061,132.503437 179.061,129.841414 C179.061,127.161878 177.411,125.185376 174.856,125.185376 M174.856,123.91441 C178.2385,123.91441 180.536,126.456341 180.536,129.841414 C180.536,133.226486 178.2385,135.768417 174.856,135.768417 C171.4585,135.768417 169.1735,133.226486 169.1735,129.841414 C169.1735,126.456341 171.4585,123.91441 174.856,123.91441" id="Fill-66" fill="#929076" mask="url(#mask-2)"></path>
                    <path d="M184.20175,126.423066 L184.20175,135.562511 L182.77925,135.562511 L182.77925,124.103804 L184.23675,124.103804 L190.82675,133.053104 L190.82675,124.103804 L192.25425,124.103804 L192.25425,135.562511 L190.87925,135.562511 L184.20175,126.423066 Z" id="Fill-67" fill="#929076" mask="url(#mask-2)"></path>
                    <path d="M195.09275,132.864711 C195.85025,133.70535 197.08525,134.495951 198.69775,134.495951 C200.74275,134.495951 201.39525,133.397616 201.39525,132.521951 C201.39525,131.145905 200.00275,130.77062 198.49275,130.357806 C196.65525,129.874939 194.61525,129.359548 194.61525,127.110338 C194.61525,125.218901 196.29525,123.932924 198.54525,123.932924 C200.29525,123.932924 201.65025,124.515867 202.61275,125.529137 L201.75525,126.577433 C200.89525,125.631715 199.69525,125.201388 198.44275,125.201388 C197.06775,125.201388 196.08775,125.941951 196.08775,127.025274 C196.08775,128.173646 197.41275,128.518909 198.87025,128.914209 C200.74275,129.412087 202.87025,129.997532 202.87025,132.399357 C202.87025,134.068125 201.73775,135.769418 198.64775,135.769418 C196.65525,135.769418 195.19775,135.011342 194.25275,133.948034 L195.09275,132.864711 Z" id="Fill-68" fill="#929076" mask="url(#mask-2)"></path>
                    <path d="M123.49375,40.3529133 C123.21375,40.3529133 122.96875,40.1627688 122.90125,39.8925635 C122.86375,39.7399475 122.88875,39.577324 122.97125,39.4422213 C123.05625,39.3021148 123.19375,39.2045407 123.35625,39.1670122 L123.47625,39.1369894 C123.56625,39.1069665 123.68875,39.0719399 123.83625,39.0143962 C124.06625,38.9318335 124.50375,38.7516966 124.95375,38.4564722 C125.97875,37.7834608 126.47625,36.9403202 126.47875,35.8770122 C126.47875,35.4692023 126.40125,35.021362 126.24625,34.5434989 C126.19375,34.3983886 126.20625,34.235765 126.27875,34.0931567 C126.35375,33.9455445 126.48375,33.8354608 126.64375,33.7879247 C126.96125,33.6953544 127.29625,33.8579779 127.40375,34.1682137 C127.60125,34.7711719 127.69875,35.3441072 127.69875,35.8770122 C127.70125,37.7259171 126.57375,38.8442669 125.62875,39.4597346 C124.70375,40.0626928 123.80875,40.2953696 123.63875,40.3354 L123.49375,40.3529133 Z" id="Fill-69" fill="#FEFEFE" mask="url(#mask-2)"></path>
                    <path d="M122.09725,3.22144791 C100.34975,3.22144791 82.65475,20.9299042 82.65475,42.6939422 C82.65475,64.4604821 100.34975,82.1689384 122.09725,82.1689384 C143.84475,82.1689384 161.53975,64.4604821 161.53975,42.6939422 C161.53975,20.9299042 143.84475,3.22144791 122.09725,3.22144791 M122.09725,85.2963148 C98.62475,85.2963148 79.52975,66.184292 79.52975,42.6939422 C79.52975,19.2060943 98.62475,0.0940714829 122.09725,0.0940714829 C145.56975,0.0940714829 164.66475,19.2060943 164.66475,42.6939422 C164.66475,66.184292 145.56975,85.2963148 122.09725,85.2963148" id="Fill-70" fill="#C98429" mask="url(#mask-2)"></path>
                    <path d="M122.2095,20.6687057 C118.4745,25.1621202 107.0395,39.7131772 107.0395,49.5181278 C107.0395,57.8269414 113.7945,64.5870783 122.097,64.5870783 C130.402,64.5870783 137.157,57.8269414 137.157,49.5181278 C137.157,39.3754205 125.9145,25.0995726 122.2095,20.6687057 M122.097,67.7144548 C112.0695,67.7144548 103.9145,59.5532532 103.9145,49.5181278 C103.9145,36.6733673 120.337,18.0116867 121.0345,17.2235878 C121.3295,16.890835 121.7545,16.7006905 122.1995,16.6981886 L122.2045,16.6981886 C122.6495,16.6981886 123.072,16.8883331 123.3695,17.218584 C124.057,17.9891696 140.282,36.250546 140.282,49.5181278 C140.282,59.5532532 132.1245,67.7144548 122.097,67.7144548" id="Fill-71" fill="#C98429" mask="url(#mask-2)"></path>
                    <path d="M122.2095,20.6687057 C118.4745,25.1621202 107.0395,39.7131772 107.0395,49.5181278 C107.0395,57.8269414 113.7945,64.5870783 122.097,64.5870783 C130.402,64.5870783 137.157,57.8269414 137.157,49.5181278 C137.157,39.3754205 125.9145,25.0995726 122.2095,20.6687057 M122.097,67.7144548 C112.0695,67.7144548 103.9145,59.5532532 103.9145,49.5181278 C103.9145,36.6733673 120.337,18.0116867 121.0345,17.2235878 C121.3295,16.890835 121.7545,16.7006905 122.1995,16.6981886 L122.2045,16.6981886 C122.6495,16.6981886 123.072,16.8883331 123.3695,17.218584 C124.057,17.9891696 140.282,36.250546 140.282,49.5181278 C140.282,59.5532532 132.1245,67.7144548 122.097,67.7144548" id="Fill-72" fill="#C98429" mask="url(#mask-2)"></path>
                    <path d="M122.0995,61.4089133 C121.237,61.4089133 120.537,60.708381 120.537,59.8452251 C120.537,58.9820692 121.237,58.2815369 122.0995,58.2815369 C126.9295,58.2815369 130.857,54.3485483 130.857,49.5173772 C130.857,48.0587688 130.452,46.2448905 129.6545,44.1282821 C129.3495,43.3201681 129.7595,42.4169817 130.567,42.1142517 C131.3845,41.8090198 132.2745,42.2193316 132.5795,43.0249437 C133.5095,45.4968221 133.982,47.6809817 133.982,49.5173772 C133.982,56.0748601 128.652,61.4089133 122.0995,61.4089133" id="Fill-73" fill="#C98429" mask="url(#mask-2)"></path>
                    <path d="M3.54725,382.08709 L3.54725,397.864078 L7.37225,397.864078 C9.18475,397.864078 10.67725,397.228595 11.84475,395.962633 C13.01475,394.69417 13.59975,393.090451 13.59975,391.153979 L13.59975,388.75966 C13.59975,386.845706 13.01225,385.256998 11.83725,383.988535 C10.66475,382.720071 9.17725,382.08709 7.37225,382.08709 L3.54725,382.08709 Z M7.37225,380.801113 C9.61225,380.801113 11.46225,381.549181 12.92225,383.042816 C14.37975,384.536451 15.10975,386.455409 15.10975,388.797189 L15.10975,391.153979 C15.10975,393.500763 14.37975,395.422223 12.92225,396.90585 C11.46225,398.391979 9.61225,399.135044 7.37225,399.135044 L-0.00025,399.135044 L-0.00025,398.026702 L2.04975,397.864078 L2.04975,382.08709 L-0.00025,381.924466 L-0.00025,380.801113 L2.04975,380.801113 L7.37225,380.801113 Z" id="Fill-74" fill="#444545" mask="url(#mask-2)"></path>
                    <path d="M17.8785,381.923465 L17.8785,380.802614 L23.491,380.802614 L23.491,381.923465 L21.441,382.086089 L21.441,397.863078 L23.491,398.028203 L23.491,399.134043 L17.8785,399.134043 L17.8785,398.028203 L19.9285,397.863078 L19.9285,382.086089 L17.8785,381.923465 Z" id="Fill-75" fill="#444545" mask="url(#mask-2)"></path>
                    <path d="M38.44975,386.241997 L37.21725,386.241997 L37.00225,383.647525 C36.54975,383.077092 35.93225,382.631754 35.15475,382.306506 C34.37225,381.983761 33.45975,381.821138 32.40975,381.821138 C30.89975,381.821138 29.72475,382.148887 28.88225,382.804385 C28.03725,383.459883 27.61725,384.273001 27.61725,385.248742 C27.61725,386.171944 27.99475,386.940027 28.75475,387.557997 C29.51475,388.173465 30.82975,388.718879 32.69975,389.189237 C34.66975,389.692119 36.16975,390.370134 37.19725,391.228286 C38.22475,392.083936 38.73725,393.212294 38.73725,394.61586 C38.73725,396.074468 38.14225,397.237852 36.95225,398.10351 C35.76225,398.966666 34.23725,399.399495 32.38475,399.399495 C31.07725,399.399495 29.86225,399.16932 28.74225,398.706468 C27.62225,398.246119 26.70725,397.585617 25.99475,396.729967 L25.99475,393.520027 L27.22725,393.520027 L27.44225,396.202065 C27.99225,396.830043 28.70475,397.310408 29.56725,397.635655 C30.42975,397.963404 31.36975,398.126027 32.38475,398.126027 C33.82725,398.126027 34.99475,397.808286 35.88975,397.170301 C36.78225,396.532316 37.22975,395.689176 37.22975,394.638377 C37.22975,393.642621 36.85475,392.824499 36.10725,392.191518 C35.36225,391.558537 34.06225,390.995609 32.20975,390.51024 C30.20475,390.007358 28.68725,389.35186 27.65475,388.546248 C26.62475,387.740636 26.10725,386.654811 26.10725,385.286271 C26.10725,383.882704 26.69475,382.741837 27.86975,381.861168 C29.04225,380.977997 30.55725,380.537662 32.40975,380.537662 C33.74225,380.537662 34.93225,380.767837 35.97725,381.230689 C37.02225,381.693541 37.84475,382.319016 38.44975,383.107115 L38.44975,386.241997 Z" id="Fill-76" fill="#444545" mask="url(#mask-2)"></path>
                    <path d="M55.2955,380.802113 L55.2955,384.667551 L53.963,384.667551 L53.848,382.08809 L48.7655,382.08809 L48.7655,397.862577 L50.8155,398.027703 L50.8155,399.136045 L45.2055,399.136045 L45.2055,398.027703 L47.2555,397.862577 L47.2555,382.08809 L42.173,382.08809 L42.073,384.667551 L40.7255,384.667551 L40.7255,380.802113 L55.2955,380.802113 Z" id="Fill-77" fill="#444545" mask="url(#mask-2)"></path>
                    <path d="M57.22175,381.923465 L57.22175,380.802614 L62.83175,380.802614 L62.83175,381.923465 L60.78175,382.086089 L60.78175,397.863078 L62.83175,398.028203 L62.83175,399.134043 L57.22175,399.134043 L57.22175,398.028203 L59.27175,397.863078 L59.27175,382.086089 L57.22175,381.923465 Z" id="Fill-78" fill="#444545" mask="url(#mask-2)"></path>
                    <path d="M64.8585,399.135044 L64.8585,398.026702 L66.9085,397.864078 L66.9085,382.08709 L64.8585,381.924466 L64.8585,380.801113 L66.9085,380.801113 L68.4185,380.801113 L70.4685,380.801113 L70.4685,381.924466 L68.4185,382.08709 L68.4185,397.864078 L76.031,397.864078 L76.1435,395.282116 L77.476,395.282116 L77.476,399.135044 L64.8585,399.135044 Z" id="Fill-79" fill="#444545" mask="url(#mask-2)"></path>
                    <path d="M79.68025,399.135044 L79.68025,398.026702 L81.73025,397.864078 L81.73025,382.08709 L79.68025,381.924466 L79.68025,380.801113 L81.73025,380.801113 L83.24025,380.801113 L85.29025,380.801113 L85.29025,381.924466 L83.24025,382.08709 L83.24025,397.864078 L90.85275,397.864078 L90.96525,395.282116 L92.29775,395.282116 L92.29775,399.135044 L79.68025,399.135044 Z" id="Fill-80" fill="#444545" mask="url(#mask-2)"></path>
                    <path d="M105.559,390.258799 L98.0465,390.258799 L98.0465,397.864579 L106.704,397.864579 L106.8165,395.117491 L108.1515,395.117491 L108.1515,399.135544 L94.499,399.135544 L94.499,398.027202 L96.549,397.864579 L96.549,382.08759 L94.499,381.922465 L94.499,380.801613 L96.549,380.801613 L108.089,380.801613 L108.089,384.832176 L106.7565,384.832176 L106.6415,382.08759 L98.0465,382.08759 L98.0465,388.972822 L105.559,388.972822 L105.559,390.258799 Z" id="Fill-81" fill="#444545" mask="url(#mask-2)"></path>
                    <path d="M114.2285,389.452437 L118.116,389.452437 C119.7685,389.452437 120.976,389.122186 121.7385,388.459182 C122.5035,387.793676 122.8835,386.908003 122.8835,385.802163 C122.8835,384.626269 122.5035,383.715577 121.7385,383.070087 C120.976,382.422094 119.826,382.099349 118.291,382.099349 L114.2285,382.099349 L114.2285,389.452437 Z M118.291,380.815874 C120.2535,380.815874 121.7635,381.243699 122.816,382.099349 C123.866,382.954999 124.3935,384.19344 124.3935,385.81217 C124.3935,386.770398 124.1135,387.631052 123.551,388.394132 C122.9885,389.159714 122.1985,389.712634 121.1735,390.057897 C122.3035,390.340611 123.121,390.853501 123.621,391.586558 C124.1185,392.319615 124.371,393.247821 124.371,394.363668 L124.371,396.03744 C124.371,396.685433 124.471,397.163296 124.671,397.473532 C124.8735,397.783767 125.1785,397.951395 125.5885,397.976414 L126.206,398.013942 L126.206,399.134794 L125.2485,399.134794 C124.361,399.134794 123.741,398.834566 123.3885,398.229106 C123.0335,397.623646 122.8585,396.885585 122.8585,396.012421 L122.8585,394.388687 C122.8585,393.280345 122.506,392.402178 121.796,391.749182 C121.086,391.101189 120.101,390.760931 118.8335,390.735912 L114.2285,390.735912 L114.2285,397.863828 L116.2785,398.038961 L116.2785,399.134794 L110.681,399.134794 L110.681,398.038961 L112.731,397.863828 L112.731,382.099349 L110.681,381.924216 L110.681,380.815874 L118.291,380.815874 Z" id="Fill-82" fill="#444545" mask="url(#mask-2)"></path>
                    <path d="M140.901,386.241997 L139.6685,386.241997 L139.4535,383.647525 C139.001,383.077092 138.3835,382.631754 137.606,382.306506 C136.8235,381.983761 135.911,381.821138 134.861,381.821138 C133.351,381.821138 132.176,382.148887 131.3335,382.804385 C130.4885,383.459883 130.0685,384.273001 130.0685,385.248742 C130.0685,386.171944 130.446,386.940027 131.206,387.557997 C131.966,388.173465 133.281,388.718879 135.151,389.189237 C137.121,389.692119 138.621,390.370134 139.6485,391.228286 C140.676,392.083936 141.1885,393.212294 141.1885,394.61586 C141.1885,396.074468 140.5935,397.237852 139.4035,398.10351 C138.2135,398.966666 136.6885,399.399495 134.836,399.399495 C133.5285,399.399495 132.3135,399.16932 131.1935,398.706468 C130.0735,398.246119 129.1585,397.585617 128.446,396.729967 L128.446,393.520027 L129.6785,393.520027 L129.8935,396.202065 C130.4435,396.830043 131.156,397.310408 132.0185,397.635655 C132.881,397.963404 133.821,398.126027 134.836,398.126027 C136.2785,398.126027 137.446,397.808286 138.341,397.170301 C139.2335,396.532316 139.681,395.689176 139.681,394.638377 C139.681,393.642621 139.306,392.824499 138.5585,392.191518 C137.8135,391.558537 136.5135,390.995609 134.661,390.51024 C132.656,390.007358 131.1385,389.35186 130.106,388.546248 C129.076,387.740636 128.5585,386.654811 128.5585,385.286271 C128.5585,383.882704 129.146,382.741837 130.321,381.861168 C131.4935,380.977997 133.0085,380.537662 134.861,380.537662 C136.1935,380.537662 137.3835,380.767837 138.4285,381.230689 C139.4735,381.693541 140.296,382.319016 140.901,383.107115 L140.901,386.241997 Z" id="Fill-83" fill="#444545" mask="url(#mask-2)"></path>
                    <path d="M164.27725,397.120513 C163.83975,397.658422 163.07975,398.171312 161.99975,398.661684 C160.91725,399.152057 159.56225,399.399745 157.93475,399.399745 C155.55475,399.399745 153.61475,398.539091 152.12475,396.817783 C150.62975,395.096475 149.88225,392.854772 149.88225,390.095175 L149.88225,389.704878 C149.88225,386.985312 150.62975,384.776133 152.12475,383.082346 C153.61475,381.386057 155.57475,380.537913 157.99725,380.537913 C159.37475,380.537913 160.58975,380.765586 161.64725,381.223433 C162.70475,381.681281 163.56475,382.309259 164.22475,383.104863 L164.22475,386.292285 L163.05725,386.292285 L162.79225,383.610247 C162.29725,383.064833 161.65475,382.629502 160.86725,382.306757 C160.07725,381.984011 159.15975,381.821388 158.11225,381.821388 C156.03225,381.821388 154.39225,382.551943 153.19225,384.013053 C151.99225,385.474163 151.39475,387.363099 151.39475,389.679859 L151.39475,390.095175 C151.39475,392.479487 151.98225,394.413456 153.16225,395.899586 C154.33725,397.383213 155.92975,398.126278 157.93475,398.126278 C159.12475,398.126278 160.14725,397.97116 160.99475,397.660924 C161.83975,397.350688 162.43725,397.017935 162.77975,396.667669 L162.77975,392.221791 L159.25725,392.159243 L159.25725,390.938316 L164.27725,390.938316 L164.27725,397.120513 Z" id="Fill-84" fill="#444545" mask="url(#mask-2)"></path>
                    <path d="M170.996,389.452437 L174.8835,389.452437 C176.536,389.452437 177.7435,389.122186 178.506,388.459182 C179.271,387.793676 179.651,386.908003 179.651,385.802163 C179.651,384.626269 179.271,383.715577 178.506,383.070087 C177.7435,382.422094 176.5935,382.099349 175.0585,382.099349 L170.996,382.099349 L170.996,389.452437 Z M175.0585,380.815874 C177.021,380.815874 178.531,381.243699 179.5835,382.099349 C180.6335,382.954999 181.161,384.19344 181.161,385.81217 C181.161,386.770398 180.881,387.631052 180.3185,388.394132 C179.756,389.159714 178.966,389.712634 177.941,390.057897 C179.071,390.340611 179.8885,390.853501 180.3885,391.586558 C180.886,392.319615 181.1385,393.247821 181.1385,394.363668 L181.1385,396.03744 C181.1385,396.685433 181.2385,397.163296 181.4385,397.473532 C181.641,397.783767 181.946,397.951395 182.356,397.976414 L182.9735,398.013942 L182.9735,399.134794 L182.016,399.134794 C181.1285,399.134794 180.5085,398.834566 180.156,398.229106 C179.801,397.623646 179.626,396.885585 179.626,396.012421 L179.626,394.388687 C179.626,393.280345 179.2735,392.402178 178.5635,391.749182 C177.8535,391.101189 176.8685,390.760931 175.601,390.735912 L170.996,390.735912 L170.996,397.863828 L173.046,398.038961 L173.046,399.134794 L167.4485,399.134794 L167.4485,398.038961 L169.4985,397.863828 L169.4985,382.099349 L167.4485,381.924216 L167.4485,380.815874 L175.0585,380.815874 Z" id="Fill-85" fill="#444545" mask="url(#mask-2)"></path>
                    <path d="M189.46525,392.449214 L196.70025,392.449214 L193.14025,382.754347 L193.06275,382.754347 L189.46525,392.449214 Z M184.53275,398.025951 L185.87775,397.925875 L192.38275,380.802864 L193.80525,380.802864 L200.24525,397.925875 L201.61775,398.025951 L201.61775,399.134294 L197.10275,399.134294 L197.10275,398.025951 L198.69775,397.900856 L197.19025,393.797738 L188.96275,393.797738 L187.43775,397.900856 L189.03775,398.025951 L189.03775,399.134294 L184.53275,399.134294 L184.53275,398.025951 Z" id="Fill-86" fill="#444545" mask="url(#mask-2)"></path>
                    <path d="M203.6695,381.923465 L203.6695,380.802614 L209.282,380.802614 L209.282,381.923465 L207.232,382.086089 L207.232,397.863078 L209.282,398.028203 L209.282,399.134043 L203.6695,399.134043 L203.6695,398.028203 L205.7195,397.863078 L205.7195,382.086089 L203.6695,381.923465 Z" id="Fill-87" fill="#444545" mask="url(#mask-2)"></path>
                    <path d="M228.8965,380.802113 L228.8965,381.922965 L226.8465,382.08809 L226.8465,399.136045 L225.3465,399.136045 L214.9415,383.371566 L214.869,383.384075 L214.869,397.862577 L216.919,398.027703 L216.919,399.136045 L211.3065,399.136045 L211.3065,398.027703 L213.3565,397.862577 L213.3565,382.08809 L211.3065,381.922965 L211.3065,380.802113 L213.3565,380.802113 L214.869,380.802113 L225.2715,396.541573 L225.3465,396.529064 L225.3465,382.08809 L223.2965,381.922965 L223.2965,380.802113 L226.8465,380.802113 L228.8965,380.802113 Z" id="Fill-88" fill="#444545" mask="url(#mask-2)"></path>
                    <path d="M243.5645,386.241997 L242.332,386.241997 L242.1195,383.647525 C241.6645,383.077092 241.0495,382.631754 240.2695,382.306506 C239.4895,381.983761 238.5745,381.821138 237.527,381.821138 C236.0145,381.821138 234.8395,382.148887 233.997,382.804385 C233.1545,383.459883 232.732,384.273001 232.732,385.248742 C232.732,386.171944 233.112,386.940027 233.872,387.557997 C234.632,388.173465 235.9445,388.718879 237.8145,389.189237 C239.787,389.692119 241.287,390.370134 242.3145,391.228286 C243.3395,392.083936 243.8545,393.212294 243.8545,394.61586 C243.8545,396.074468 243.2595,397.237852 242.067,398.10351 C240.877,398.966666 239.3545,399.399495 237.4995,399.399495 C236.192,399.399495 234.977,399.16932 233.857,398.706468 C232.7395,398.246119 231.822,397.585617 231.1095,396.729967 L231.1095,393.520027 L232.3445,393.520027 L232.557,396.202065 C233.1095,396.830043 233.8195,397.310408 234.682,397.635655 C235.547,397.963404 236.487,398.126027 237.4995,398.126027 C238.942,398.126027 240.112,397.808286 241.007,397.170301 C241.8995,396.532316 242.3445,395.689176 242.3445,394.638377 C242.3445,393.642621 241.972,392.824499 241.2245,392.191518 C240.4795,391.558537 239.177,390.995609 237.3245,390.51024 C235.3195,390.007358 233.802,389.35186 232.772,388.546248 C231.7395,387.740636 231.222,386.654811 231.222,385.286271 C231.222,383.882704 231.8095,382.741837 232.9845,381.861168 C234.157,380.977997 235.672,380.537662 237.527,380.537662 C238.8595,380.537662 240.0495,380.767837 241.0945,381.230689 C242.137,381.693541 242.962,382.319016 243.5645,383.107115 L243.5645,386.241997 Z" id="Fill-89" fill="#444545" mask="url(#mask-2)"></path>
                    <path d="M23.59875,425.547865 L25.64875,425.385241 L25.64875,409.608252 L23.59875,409.443127 L23.59875,408.322275 L37.33625,408.322275 L37.33625,412.352838 L36.00375,412.352838 L35.89125,409.608252 L27.14625,409.608252 L27.14625,416.771195 L34.79625,416.771195 L34.79625,418.069682 L27.14625,418.069682 L27.14625,425.385241 L29.19625,425.547865 L29.19625,426.656207 L23.59875,426.656207 L23.59875,425.547865 Z" id="Fill-90" fill="#444545" mask="url(#mask-2)"></path>
                    <path d="M53.46675,417.350886 C53.46675,414.976582 52.88925,413.05262 51.73175,411.584004 C50.57425,410.115388 49.00925,409.379829 47.03925,409.379829 C45.09925,409.379829 43.56675,410.115388 42.43925,411.584004 C41.31175,413.05262 40.74675,414.976582 40.74675,417.350886 L40.74675,417.616087 C40.74675,420.007905 41.31425,421.939373 42.44675,423.407989 C43.57675,424.876605 45.11175,425.612163 47.05175,425.612163 C49.03925,425.612163 50.60425,424.879106 51.74925,423.412992 C52.89425,421.94938 53.46675,420.015411 53.46675,417.616087 L53.46675,417.350886 Z M54.97675,417.616087 C54.97675,420.370681 54.24425,422.60738 52.77675,424.333692 C51.30675,426.057502 49.39925,426.920658 47.05175,426.920658 C44.73675,426.920658 42.85425,426.055 41.40675,424.326186 C39.96175,422.597373 39.23925,420.360673 39.23925,417.616087 L39.23925,417.375905 C39.23925,414.631319 39.95925,412.392118 41.40175,410.6583 C42.84425,408.924483 44.72175,408.058825 47.03925,408.058825 C49.38675,408.058825 51.29675,408.924483 52.76925,410.6583 C54.24175,412.392118 54.97675,414.631319 54.97675,417.375905 L54.97675,417.616087 Z" id="Fill-91" fill="#444545" mask="url(#mask-2)"></path>
                    <path d="M60.813,416.973349 L64.703,416.973349 C66.3555,416.973349 67.5605,416.643098 68.3255,415.980094 C69.0905,415.314589 69.4705,414.428916 69.4705,413.323075 C69.4705,412.147182 69.0905,411.23649 68.3255,410.590999 C67.5605,409.943007 66.413,409.620262 64.878,409.620262 L60.813,409.620262 L60.813,416.973349 Z M64.878,408.336786 C66.8405,408.336786 68.348,408.764611 69.403,409.620262 C70.453,410.475912 70.978,411.714353 70.978,413.333083 C70.978,414.291311 70.698,415.151965 70.1355,415.915045 C69.5755,416.680627 68.783,417.233547 67.758,417.578809 C68.8905,417.861524 69.708,418.374414 70.2055,419.107471 C70.7055,419.840528 70.9555,420.768733 70.9555,421.884581 L70.9555,423.558353 C70.9555,424.206345 71.0555,424.684208 71.258,424.994444 C71.458,425.30468 71.7655,425.472307 72.1755,425.497326 L72.7905,425.534855 L72.7905,426.655706 L71.8355,426.655706 C70.948,426.655706 70.3255,426.355478 69.973,425.750018 C69.6205,425.144558 69.4455,424.406497 69.4455,423.533334 L69.4455,421.9096 C69.4455,420.801258 69.0905,419.92309 68.3805,419.270094 C67.673,418.622102 66.6855,418.281843 65.4205,418.256824 L60.813,418.256824 L60.813,425.384741 L62.863,425.559874 L62.863,426.655706 L57.2655,426.655706 L57.2655,425.559874 L59.3155,425.384741 L59.3155,409.620262 L57.2655,409.445129 L57.2655,408.336786 L64.878,408.336786 Z" id="Fill-92" fill="#444545" mask="url(#mask-2)"></path>
                    <path d="M80.81775,426.655957 L80.81775,425.547614 L82.86775,425.384991 L82.86775,409.608002 L80.81775,409.445379 L80.81775,408.322025 L82.86775,408.322025 L84.38025,408.322025 L86.43025,408.322025 L86.43025,409.445379 L84.38025,409.608002 L84.38025,425.384991 L91.99025,425.384991 L92.10525,422.803029 L93.43775,422.803029 L93.43775,426.655957 L80.81775,426.655957 Z" id="Fill-93" fill="#444545" mask="url(#mask-2)"></path>
                    <path d="M95.891,409.444378 L95.891,408.323526 L101.5035,408.323526 L101.5035,409.444378 L99.4535,409.607002 L99.4535,425.38399 L101.5035,425.549116 L101.5035,426.654956 L95.891,426.654956 L95.891,425.549116 L97.941,425.38399 L97.941,409.607002 L95.891,409.444378 Z" id="Fill-94" fill="#444545" mask="url(#mask-2)"></path>
                    <path d="M108.0445,409.444378 L106.332,409.581983 L111.392,423.560104 L111.7545,424.77853 L111.832,424.77853 L112.197,423.560104 L117.242,409.581983 L115.5295,409.444378 L115.5295,408.323526 L120.2845,408.323526 L120.2845,409.444378 L118.8645,409.556963 L112.4995,426.654956 L111.077,426.654956 L104.697,409.556963 L103.2895,409.444378 L103.2895,408.323526 L108.0445,408.323526 L108.0445,409.444378 Z" id="Fill-95" fill="#444545" mask="url(#mask-2)"></path>
                    <path d="M132.893,417.779712 L125.3805,417.779712 L125.3805,425.385491 L134.038,425.385491 L134.1505,422.638404 L135.4855,422.638404 L135.4855,426.656457 L121.833,426.656457 L121.833,425.548115 L123.883,425.385491 L123.883,409.608503 L121.833,409.443377 L121.833,408.322525 L123.883,408.322525 L135.423,408.322525 L135.423,412.353088 L134.0905,412.353088 L133.9755,409.608503 L125.3805,409.608503 L125.3805,416.493735 L132.893,416.493735 L132.893,417.779712 Z" id="Fill-96" fill="#444545" mask="url(#mask-2)"></path>
                    <path d="M150.94725,413.76291 L149.71475,413.76291 L149.50225,411.168438 C149.04725,410.598005 148.43225,410.152666 147.65225,409.827419 C146.87225,409.504674 145.95725,409.34205 144.90975,409.34205 C143.39725,409.34205 142.22225,409.669799 141.37975,410.325297 C140.53725,410.980795 140.11475,411.793913 140.11475,412.769655 C140.11475,413.692856 140.49475,414.46094 141.25475,415.07891 C142.01475,415.694377 143.32725,416.239792 145.19725,416.710149 C147.16975,417.213031 148.66975,417.891046 149.69725,418.749198 C150.72225,419.604849 151.23725,420.733206 151.23725,422.136773 C151.23725,423.595381 150.64225,424.758765 149.44975,425.624423 C148.25975,426.487579 146.73725,426.920408 144.88225,426.920408 C143.57475,426.920408 142.35975,426.690233 141.23975,426.227381 C140.12225,425.767031 139.20475,425.106529 138.49225,424.250879 L138.49225,421.04094 L139.72725,421.04094 L139.93975,423.722978 C140.49225,424.350955 141.20225,424.83132 142.06475,425.156567 C142.92975,425.484316 143.86975,425.64694 144.88225,425.64694 C146.32475,425.64694 147.49475,425.329198 148.38975,424.691214 C149.28225,424.053229 149.72725,423.210088 149.72725,422.15929 C149.72725,421.163533 149.35475,420.345411 148.60725,419.71243 C147.86225,419.079449 146.55975,418.516522 144.70725,418.031153 C142.70225,417.528271 141.18475,416.872773 140.15475,416.06716 C139.12225,415.261548 138.60475,414.175723 138.60475,412.807183 C138.60475,411.403617 139.19225,410.26275 140.36725,409.382081 C141.53975,408.49891 143.05475,408.058575 144.90975,408.058575 C146.24225,408.058575 147.43225,408.28875 148.47725,408.751602 C149.51975,409.214453 150.34475,409.839929 150.94725,410.628027 L150.94725,413.76291 Z" id="Fill-97" fill="#444545" mask="url(#mask-2)"></path>
                    <path d="M167.7955,408.323026 L167.7955,412.188463 L166.4605,412.188463 L166.348,409.609003 L161.2655,409.609003 L161.2655,425.38349 L163.3155,425.548615 L163.3155,426.656957 L157.7055,426.656957 L157.7055,425.548615 L159.7555,425.38349 L159.7555,409.609003 L154.673,409.609003 L154.5705,412.188463 L153.2255,412.188463 L153.2255,408.323026 L167.7955,408.323026 Z" id="Fill-98" fill="#444545" mask="url(#mask-2)"></path>
                    <path d="M183.78425,417.350886 C183.78425,414.976582 183.20675,413.05262 182.04925,411.584004 C180.89175,410.115388 179.32675,409.379829 177.35675,409.379829 C175.41675,409.379829 173.88675,410.115388 172.75925,411.584004 C171.62925,413.05262 171.06425,414.976582 171.06425,417.350886 L171.06425,417.616087 C171.06425,420.007905 171.63175,421.939373 172.76425,423.407989 C173.89675,424.876605 175.43175,425.612163 177.36925,425.612163 C179.35675,425.612163 180.92175,424.879106 182.06675,423.412992 C183.21175,421.94938 183.78425,420.015411 183.78425,417.616087 L183.78425,417.350886 Z M185.29425,417.616087 C185.29425,420.370681 184.56175,422.60738 183.09425,424.333692 C181.62675,426.057502 179.71675,426.920658 177.36925,426.920658 C175.05425,426.920658 173.17425,426.055 171.72675,424.326186 C170.27925,422.597373 169.55675,420.360673 169.55675,417.616087 L169.55675,417.375905 C169.55675,414.631319 170.27675,412.392118 171.71925,410.6583 C173.16175,408.924483 175.04175,408.058825 177.35675,408.058825 C179.70425,408.058825 181.61675,408.924483 183.08675,410.6583 C184.55925,412.392118 185.29425,414.631319 185.29425,417.375905 L185.29425,417.616087 Z" id="Fill-99" fill="#444545" mask="url(#mask-2)"></path>
                    <path d="M202.1655,414.064639 L200.9955,414.064639 L200.783,411.282525 C200.2955,410.702084 199.663,410.234228 198.883,409.878958 C198.103,409.521186 197.203,409.343551 196.1755,409.343551 C194.1305,409.343551 192.5055,410.089118 191.2955,411.577749 C190.088,413.068882 189.4855,414.992844 189.4855,417.349635 L189.4855,417.614837 C189.4855,419.974129 190.083,421.903095 191.278,423.401734 C192.473,424.900373 194.043,425.648441 195.988,425.648441 C197.0205,425.648441 197.958,425.468304 198.8005,425.10803 C199.643,424.747757 200.3055,424.279901 200.783,423.709468 L200.9955,420.927354 L202.1655,420.927354 L202.1655,424.149802 C201.5955,424.940403 200.763,425.598403 199.668,426.126304 C198.573,426.656707 197.348,426.919407 195.988,426.919407 C193.6405,426.919407 191.718,426.051247 190.228,424.307422 C188.733,422.566099 187.988,420.334403 187.988,417.614837 L187.988,417.377156 C187.988,414.647582 188.7305,412.413384 190.2205,410.672061 C191.708,408.930738 193.658,408.060076 196.0655,408.060076 C197.4255,408.060076 198.638,408.325278 199.708,408.858183 C200.7755,409.391087 201.5955,410.051589 202.1655,410.84219 L202.1655,414.064639 Z" id="Fill-100" fill="#444545" mask="url(#mask-2)"></path>
                    <path d="M204.558,425.547865 L206.608,425.385241 L206.608,409.608252 L204.558,409.443127 L204.558,408.322275 L210.1555,408.322275 L210.1555,409.443127 L208.1055,409.608252 L208.1055,416.758686 L210.608,416.758686 L216.7755,409.545705 L215.013,409.443127 L215.013,408.322275 L220.133,408.322275 L220.133,409.443127 L218.523,409.595743 L211.968,417.339127 L219.038,425.395249 L220.6855,425.547865 L220.6855,426.656207 L215.4655,426.656207 L215.4655,425.547865 L217.203,425.447789 L210.623,418.032154 L208.1055,418.032154 L208.1055,425.385241 L210.1555,425.547865 L210.1555,426.656207 L204.558,426.656207 L204.558,425.547865 Z" id="Fill-101" fill="#444545" mask="url(#mask-2)"></path>
                    <path d="M47.439,369.448236 L47.439,367.189019 L59.139,353.91143 C61.314,351.454563 62.8465,349.41051 63.739,347.771764 C64.629,346.138023 65.0765,344.566829 65.0765,343.060684 C65.0765,340.851506 64.4465,339.070152 63.1865,337.721627 C61.9265,336.370601 60.1615,335.695087 57.889,335.695087 C55.174,335.695087 53.114,336.44816 51.7065,337.954304 C50.3015,339.460449 49.5965,341.471977 49.5965,343.993894 L46.874,343.993894 L46.8265,343.846281 C46.744,340.866517 47.704,338.347103 49.7065,336.285536 C51.7115,334.221468 54.439,333.193186 57.889,333.193186 C60.9615,333.193186 63.4215,334.076357 65.259,335.8427 C67.099,337.609042 68.0165,339.983346 68.0165,342.96311 C68.0165,344.924601 67.399,346.918616 66.1665,348.940152 C64.9315,350.959186 63.219,353.213399 61.029,355.702791 L51.1665,366.846259 L51.2165,366.968852 L66.7915,366.968852 L67.0365,361.937529 L69.6365,361.937529 L69.6365,369.448236 L47.439,369.448236 Z" id="Fill-102" fill="#C98429" mask="url(#mask-2)"></path>
                    <path d="M79.2525,369.448236 L75.8925,369.448236 L75.8925,365.422677 L79.2525,365.422677 L79.2525,369.448236 Z" id="Fill-103" fill="#C98429" mask="url(#mask-2)"></path>
                    <path d="M86.5625,367.288344 L92.965,366.970603 L92.965,336.825196 L85.9225,337.83096 L85.9225,335.769394 L95.905,333.610253 L95.905,366.970603 L102.31,367.288344 L102.31,369.447485 L86.5625,369.447485 L86.5625,367.288344 Z" id="Fill-104" fill="#C98429" mask="url(#mask-2)"></path>
                    <path d="M124.4335,339.525498 L124.1385,336.433148 L111.3835,336.433148 L110.061,349.172829 C110.9585,348.354707 111.9485,347.724228 113.0285,347.281392 C114.106,346.841057 115.571,346.595871 117.4185,346.545833 C120.4585,346.495795 122.9135,347.519072 124.7785,349.613163 C126.641,351.709757 127.5735,354.524395 127.5735,358.059582 C127.5735,361.674829 126.666,364.562023 124.851,366.723665 C123.0335,368.882806 120.3135,369.963627 116.681,369.963627 C113.741,369.963627 111.2885,369.140502 109.336,367.496753 C107.3835,365.850502 106.446,363.418654 106.5285,360.193703 L106.576,360.046091 L109.201,360.046091 C109.201,362.45292 109.881,364.291817 111.2385,365.570289 C112.596,366.846259 114.4085,367.484243 116.681,367.484243 C119.3485,367.484243 121.3385,366.681133 122.656,365.077414 C123.971,363.476198 124.6285,361.151932 124.6285,358.107118 C124.6285,355.440091 123.971,353.300966 122.656,351.68724 C121.3385,350.076015 119.4935,349.270403 117.1235,349.270403 C114.8335,349.270403 113.0885,349.635681 111.886,350.363734 C110.686,351.091787 109.8135,352.190122 109.276,353.663741 L106.8935,353.270943 L108.8585,333.708578 L126.8135,333.708578 L126.8135,339.525498 L124.4335,339.525498 Z" id="Fill-105" fill="#C98429" mask="url(#mask-2)"></path>
                    <path d="M145.42725,338.296564 L141.52975,347.728732 L140.94725,347.728732 L137.06725,338.296564 L137.06725,347.728732 L135.64225,347.728732 L135.64225,336.267522 L137.68475,336.267522 L141.23725,344.894078 L144.80975,336.267522 L146.85225,336.267522 L146.85225,347.728732 L145.42725,347.728732 L145.42725,338.296564 Z" id="Fill-106" fill="#929076" mask="url(#mask-2)"></path>
                    <path d="M149.5375,336.268023 L150.9625,336.268023 L150.9625,347.72673 L149.5375,347.72673 L149.5375,336.268023 Z" id="Fill-107" fill="#929076" mask="url(#mask-2)"></path>
                    <path d="M153.645,336.268773 L155.0675,336.268773 L155.0675,346.456515 L160.39,346.456515 L160.39,347.727481 L153.645,347.727481 L153.645,336.268773 Z" id="Fill-108" fill="#929076" mask="url(#mask-2)"></path>
                    <path d="M162.40475,336.268773 L163.82975,336.268773 L163.82975,346.456515 L169.14975,346.456515 L169.14975,347.727481 L162.40475,347.727481 L162.40475,336.268773 Z" id="Fill-109" fill="#929076" mask="url(#mask-2)"></path>
                    <path d="M171.1675,336.268023 L172.59,336.268023 L172.59,347.72673 L171.1675,347.72673 L171.1675,336.268023 Z" id="Fill-110" fill="#929076" mask="url(#mask-2)"></path>
                    <path d="M180.49075,337.351096 C177.91575,337.351096 176.28325,339.327598 176.28325,342.007134 C176.28325,344.669157 177.91575,346.663172 180.49075,346.663172 C183.04575,346.663172 184.69575,344.669157 184.69575,342.007134 C184.69575,339.327598 183.04575,337.351096 180.49075,337.351096 M180.49075,336.08013 C183.87325,336.08013 186.17075,338.622062 186.17075,342.007134 C186.17075,345.392206 183.87325,347.934138 180.49075,347.934138 C177.09325,347.934138 174.80825,345.392206 174.80825,342.007134 C174.80825,338.622062 177.09325,336.08013 180.49075,336.08013" id="Fill-111" fill="#929076" mask="url(#mask-2)"></path>
                    <path d="M189.8365,338.588536 L189.8365,347.727981 L188.414,347.727981 L188.414,336.269274 L189.8715,336.269274 L196.4615,345.218574 L196.4615,336.269274 L197.889,336.269274 L197.889,347.727981 L196.514,347.727981 L189.8365,338.588536 Z" id="Fill-112" fill="#929076" mask="url(#mask-2)"></path>
                    <path d="M138.474,357.555699 L134.854,357.555699 L134.854,356.284733 L143.539,356.284733 L143.539,357.555699 L139.899,357.555699 L139.899,367.74344 L138.474,367.74344 L138.474,357.555699 Z" id="Fill-113" fill="#929076" mask="url(#mask-2)"></path>
                    <path d="M150.188,357.366305 C147.6155,357.366305 145.983,359.342807 145.983,362.022343 C145.983,364.684366 147.6155,366.678381 150.188,366.678381 C152.7455,366.678381 154.3955,364.684366 154.3955,362.022343 C154.3955,359.342807 152.7455,357.366305 150.188,357.366305 M150.188,356.095339 C153.5705,356.095339 155.8705,358.637271 155.8705,362.022343 C155.8705,365.407415 153.5705,367.949347 150.188,367.949347 C146.7905,367.949347 144.508,365.407415 144.508,362.022343 C144.508,358.637271 146.7905,356.095339 150.188,356.095339" id="Fill-114" fill="#929076" mask="url(#mask-2)"></path>
                    <path d="M159.53625,358.603745 L159.53625,367.74319 L158.11125,367.74319 L158.11125,356.284483 L159.57125,356.284483 L166.16125,365.233783 L166.16125,356.284483 L167.58625,356.284483 L167.58625,367.74319 L166.21375,367.74319 L159.53625,358.603745 Z" id="Fill-115" fill="#929076" mask="url(#mask-2)"></path>
                    <path d="M170.42725,365.04539 C171.18225,365.886029 172.41975,366.67663 174.03225,366.67663 C176.07475,366.67663 176.72725,365.578295 176.72725,364.70263 C176.72725,363.326584 175.33725,362.951299 173.82475,362.538485 C171.98975,362.055618 169.94725,361.540227 169.94725,359.291017 C169.94725,357.39958 171.62725,356.113603 173.87725,356.113603 C175.62725,356.113603 176.98475,356.696546 177.94725,357.709816 L177.08725,358.758113 C176.22975,357.812394 175.02725,357.382067 173.77475,357.382067 C172.40225,357.382067 171.42225,358.12263 171.42225,359.205953 C171.42225,360.354325 172.74475,360.699588 174.20475,361.094888 C176.07475,361.592767 178.20225,362.178211 178.20225,364.580037 C178.20225,366.248805 177.06975,367.950097 173.97975,367.950097 C171.98975,367.950097 170.52975,367.192021 169.58475,366.128713 L170.42725,365.04539 Z" id="Fill-116" fill="#929076" mask="url(#mask-2)"></path>
                    <path d="M122.1485,235.623295 C100.401,235.623295 82.706,253.331751 82.706,275.095789 C82.706,296.862329 100.401,314.570786 122.1485,314.570786 C143.8985,314.570786 161.5935,296.862329 161.5935,275.095789 C161.5935,253.331751 143.8985,235.623295 122.1485,235.623295 M122.1485,317.698162 C98.676,317.698162 79.581,298.586139 79.581,275.095789 C79.581,251.607941 98.676,232.495919 122.1485,232.495919 C145.6235,232.495919 164.7185,251.607941 164.7185,275.095789 C164.7185,298.586139 145.6235,317.698162 122.1485,317.698162" id="Fill-117" fill="#C98429" mask="url(#mask-2)"></path>
                    <path d="M124.10175,277.743301 C124.10175,278.621468 123.21675,279.332008 122.12675,279.332008 C121.03675,279.332008 120.15425,278.621468 120.15425,277.743301 C120.15425,276.865134 121.03675,276.154594 122.12675,276.154594 C123.21675,276.154594 124.10175,276.865134 124.10175,277.743301" id="Fill-118" fill="#C98429" mask="url(#mask-2)"></path>
                    <path d="M124.10175,272.450779 C124.10175,273.328947 123.21675,274.039487 122.12675,274.039487 C121.03675,274.039487 120.15425,273.328947 120.15425,272.450779 C120.15425,271.572612 121.03675,270.862072 122.12675,270.862072 C123.21675,270.862072 124.10175,271.572612 124.10175,272.450779" id="Fill-119" fill="#C98429" mask="url(#mask-2)"></path>
                    <path d="M124.10175,288.328094 C124.10175,289.206262 123.21675,289.916802 122.12675,289.916802 C121.03675,289.916802 120.15425,289.206262 120.15425,288.328094 C120.15425,287.449927 121.03675,286.739387 122.12675,286.739387 C123.21675,286.739387 124.10175,287.449927 124.10175,288.328094" id="Fill-120" fill="#C98429" mask="url(#mask-2)"></path>
                    <path d="M124.10175,283.035573 C124.10175,283.91374 123.21675,284.62428 122.12675,284.62428 C121.03675,284.62428 120.15425,283.91374 120.15425,283.035573 C120.15425,282.157405 121.03675,281.446865 122.12675,281.446865 C123.21675,281.446865 124.10175,282.157405 124.10175,283.035573" id="Fill-121" fill="#C98429" mask="url(#mask-2)"></path>
                    <path d="M124.10175,293.620366 C124.10175,294.498533 123.21675,295.209073 122.12675,295.209073 C121.03675,295.209073 120.15425,294.498533 120.15425,293.620366 C120.15425,292.742198 121.03675,292.031659 122.12675,292.031659 C123.21675,292.031659 124.10175,292.742198 124.10175,293.620366" id="Fill-122" fill="#C98429" mask="url(#mask-2)"></path>
                    <path d="M124.10175,261.865986 C124.10175,262.744154 123.21675,263.454694 122.12675,263.454694 C121.03675,263.454694 120.15425,262.744154 120.15425,261.865986 C120.15425,260.987819 121.03675,260.277279 122.12675,260.277279 C123.21675,260.277279 124.10175,260.987819 124.10175,261.865986" id="Fill-123" fill="#C98429" mask="url(#mask-2)"></path>
                    <path d="M124.10175,256.573715 C124.10175,257.451882 123.21675,258.162422 122.12675,258.162422 C121.03675,258.162422 120.15425,257.451882 120.15425,256.573715 C120.15425,255.695548 121.03675,254.985008 122.12675,254.985008 C123.21675,254.985008 124.10175,255.695548 124.10175,256.573715" id="Fill-124" fill="#C98429" mask="url(#mask-2)"></path>
                    <path d="M124.10175,267.158508 C124.10175,268.036675 123.21675,268.747215 122.12675,268.747215 C121.03675,268.747215 120.15425,268.036675 120.15425,267.158508 C120.15425,266.280341 121.03675,265.569801 122.12675,265.569801 C123.21675,265.569801 124.10175,266.280341 124.10175,267.158508" id="Fill-125" fill="#C98429" mask="url(#mask-2)"></path>
                    <path d="M113.681,277.814605 C113.681,278.692773 112.796,279.403313 111.706,279.403313 C110.616,279.403313 109.7335,278.692773 109.7335,277.814605 C109.7335,276.936438 110.616,276.225898 111.706,276.225898 C112.796,276.225898 113.681,276.936438 113.681,277.814605" id="Fill-126" fill="#C98429" mask="url(#mask-2)"></path>
                    <path d="M113.681,272.379475 C113.681,273.257643 112.796,273.968183 111.706,273.968183 C110.616,273.968183 109.7335,273.257643 109.7335,272.379475 C109.7335,271.501308 110.616,270.790768 111.706,270.790768 C112.796,270.790768 113.681,271.501308 113.681,272.379475" id="Fill-127" fill="#C98429" mask="url(#mask-2)"></path>
                    <path d="M103.586,277.814605 C103.586,278.692773 102.701,279.403313 101.611,279.403313 C100.521,279.403313 99.6385,278.692773 99.6385,277.814605 C99.6385,276.936438 100.521,276.225898 101.611,276.225898 C102.701,276.225898 103.586,276.936438 103.586,277.814605" id="Fill-128" fill="#C98429" mask="url(#mask-2)"></path>
                    <path d="M103.586,272.379475 C103.586,273.257643 102.701,273.968183 101.611,273.968183 C100.521,273.968183 99.6385,273.257643 99.6385,272.379475 C99.6385,271.501308 100.521,270.790768 101.611,270.790768 C102.701,270.790768 103.586,271.501308 103.586,272.379475" id="Fill-129" fill="#C98429" mask="url(#mask-2)"></path>
                    <path d="M113.681,288.685366 C113.681,289.563533 112.796,290.274073 111.706,290.274073 C110.616,290.274073 109.7335,289.563533 109.7335,288.685366 C109.7335,287.807198 110.616,287.096659 111.706,287.096659 C112.796,287.096659 113.681,287.807198 113.681,288.685366" id="Fill-130" fill="#C98429" mask="url(#mask-2)"></path>
                    <path d="M113.681,283.249986 C113.681,284.128153 112.796,284.838693 111.706,284.838693 C110.616,284.838693 109.7335,284.128153 109.7335,283.249986 C109.7335,282.371818 110.616,281.661278 111.706,281.661278 C112.796,281.661278 113.681,282.371818 113.681,283.249986" id="Fill-131" fill="#C98429" mask="url(#mask-2)"></path>
                    <path d="M113.681,261.508715 C113.681,262.386882 112.796,263.097422 111.706,263.097422 C110.616,263.097422 109.7335,262.386882 109.7335,261.508715 C109.7335,260.630548 110.616,259.920008 111.706,259.920008 C112.796,259.920008 113.681,260.630548 113.681,261.508715" id="Fill-132" fill="#C98429" mask="url(#mask-2)"></path>
                    <path d="M113.681,266.944095 C113.681,267.822262 112.796,268.532802 111.706,268.532802 C110.616,268.532802 109.7335,267.822262 109.7335,266.944095 C109.7335,266.065928 110.616,265.355388 111.706,265.355388 C112.796,265.355388 113.681,266.065928 113.681,266.944095" id="Fill-133" fill="#C98429" mask="url(#mask-2)"></path>
                    <path d="M134.52225,277.814605 C134.52225,278.692773 133.63725,279.403313 132.54725,279.403313 C131.45725,279.403313 130.57475,278.692773 130.57475,277.814605 C130.57475,276.936438 131.45725,276.225898 132.54725,276.225898 C133.63725,276.225898 134.52225,276.936438 134.52225,277.814605" id="Fill-134" fill="#C98429" mask="url(#mask-2)"></path>
                    <path d="M134.52225,272.379475 C134.52225,273.257643 133.63725,273.968183 132.54725,273.968183 C131.45725,273.968183 130.57475,273.257643 130.57475,272.379475 C130.57475,271.501308 131.45725,270.790768 132.54725,270.790768 C133.63725,270.790768 134.52225,271.501308 134.52225,272.379475" id="Fill-135" fill="#C98429" mask="url(#mask-2)"></path>
                    <path d="M144.66175,277.814605 C144.66175,278.692773 143.77675,279.403313 142.68675,279.403313 C141.59675,279.403313 140.71425,278.692773 140.71425,277.814605 C140.71425,276.936438 141.59675,276.225898 142.68675,276.225898 C143.77675,276.225898 144.66175,276.936438 144.66175,277.814605" id="Fill-136" fill="#C98429" mask="url(#mask-2)"></path>
                    <path d="M144.66175,272.379475 C144.66175,273.257643 143.77675,273.968183 142.68675,273.968183 C141.59675,273.968183 140.71425,273.257643 140.71425,272.379475 C140.71425,271.501308 141.59675,270.790768 142.68675,270.790768 C143.77675,270.790768 144.66175,271.501308 144.66175,272.379475" id="Fill-137" fill="#C98429" mask="url(#mask-2)"></path>
                    <path d="M134.52225,288.685366 C134.52225,289.563533 133.63725,290.274073 132.54725,290.274073 C131.45725,290.274073 130.57475,289.563533 130.57475,288.685366 C130.57475,287.807198 131.45725,287.096659 132.54725,287.096659 C133.63725,287.096659 134.52225,287.807198 134.52225,288.685366" id="Fill-138" fill="#C98429" mask="url(#mask-2)"></path>
                    <path d="M134.52225,283.249986 C134.52225,284.128153 133.63725,284.838693 132.54725,284.838693 C131.45725,284.838693 130.57475,284.128153 130.57475,283.249986 C130.57475,282.371818 131.45725,281.661278 132.54725,281.661278 C133.63725,281.661278 134.52225,282.371818 134.52225,283.249986" id="Fill-139" fill="#C98429" mask="url(#mask-2)"></path>
                    <path d="M134.52225,261.508715 C134.52225,262.386882 133.63725,263.097422 132.54725,263.097422 C131.45725,263.097422 130.57475,262.386882 130.57475,261.508715 C130.57475,260.630548 131.45725,259.920008 132.54725,259.920008 C133.63725,259.920008 134.52225,260.630548 134.52225,261.508715" id="Fill-140" fill="#C98429" mask="url(#mask-2)"></path>
                    <path d="M134.52225,266.944095 C134.52225,267.822262 133.63725,268.532802 132.54725,268.532802 C131.45725,268.532802 130.57475,267.822262 130.57475,266.944095 C130.57475,266.065928 131.45725,265.355388 132.54725,265.355388 C133.63725,265.355388 134.52225,266.065928 134.52225,266.944095" id="Fill-141" fill="#C98429" mask="url(#mask-2)"></path>
                    <path d="M129.35275,280.303497 C129.35275,281.181664 128.46775,281.892204 127.37775,281.892204 C126.28775,281.892204 125.40525,281.181664 125.40525,280.303497 C125.40525,279.425329 126.28775,278.714789 127.37775,278.714789 C128.46775,278.714789 129.35275,279.425329 129.35275,280.303497" id="Fill-142" fill="#C98429" mask="url(#mask-2)"></path>
                    <path d="M129.35275,274.95143 C129.35275,275.829597 128.46775,276.540137 127.37775,276.540137 C126.28775,276.540137 125.40525,275.829597 125.40525,274.95143 C125.40525,274.073262 126.28775,273.362722 127.37775,273.362722 C128.46775,273.362722 129.35275,274.073262 129.35275,274.95143" id="Fill-143" fill="#C98429" mask="url(#mask-2)"></path>
                    <path d="M129.35275,291.00738 C129.35275,291.885548 128.46775,292.596087 127.37775,292.596087 C126.28775,292.596087 125.40525,291.885548 125.40525,291.00738 C125.40525,290.129213 126.28775,289.418673 127.37775,289.418673 C128.46775,289.418673 129.35275,290.129213 129.35275,291.00738" id="Fill-144" fill="#C98429" mask="url(#mask-2)"></path>
                    <path d="M129.35275,285.655563 C129.35275,286.533731 128.46775,287.244271 127.37775,287.244271 C126.28775,287.244271 125.40525,286.533731 125.40525,285.655563 C125.40525,284.777396 126.28775,284.066856 127.37775,284.066856 C128.46775,284.066856 129.35275,284.777396 129.35275,285.655563" id="Fill-145" fill="#C98429" mask="url(#mask-2)"></path>
                    <path d="M129.35275,264.247546 C129.35275,265.125713 128.46775,265.836253 127.37775,265.836253 C126.28775,265.836253 125.40525,265.125713 125.40525,264.247546 C125.40525,263.369379 126.28775,262.658839 127.37775,262.658839 C128.46775,262.658839 129.35275,263.369379 129.35275,264.247546" id="Fill-146" fill="#C98429" mask="url(#mask-2)"></path>
                    <path d="M129.35275,258.895729 C129.35275,259.773897 128.46775,260.484437 127.37775,260.484437 C126.28775,260.484437 125.40525,259.773897 125.40525,258.895729 C125.40525,258.017562 126.28775,257.307022 127.37775,257.307022 C128.46775,257.307022 129.35275,258.017562 129.35275,258.895729" id="Fill-147" fill="#C98429" mask="url(#mask-2)"></path>
                    <path d="M129.35275,269.599613 C129.35275,270.47778 128.46775,271.18832 127.37775,271.18832 C126.28775,271.18832 125.40525,270.47778 125.40525,269.599613 C125.40525,268.721446 126.28775,268.010906 127.37775,268.010906 C128.46775,268.010906 129.35275,268.721446 129.35275,269.599613" id="Fill-148" fill="#C98429" mask="url(#mask-2)"></path>
                    <path d="M139.67875,280.59747 C139.67875,281.475637 138.79375,282.186177 137.70375,282.186177 C136.61375,282.186177 135.73125,281.475637 135.73125,280.59747 C135.73125,279.719303 136.61375,279.008763 137.70375,279.008763 C138.79375,279.008763 139.67875,279.719303 139.67875,280.59747" id="Fill-149" fill="#C98429" mask="url(#mask-2)"></path>
                    <path d="M139.67875,286.07238 C139.67875,286.950548 138.79375,287.661087 137.70375,287.661087 C136.61375,287.661087 135.73125,286.950548 135.73125,286.07238 C135.73125,285.194213 136.61375,284.483673 137.70375,284.483673 C138.79375,284.483673 139.67875,285.194213 139.67875,286.07238" id="Fill-150" fill="#C98429" mask="url(#mask-2)"></path>
                    <path d="M139.67875,275.12256 C139.67875,276.000727 138.79375,276.711267 137.70375,276.711267 C136.61375,276.711267 135.73125,276.000727 135.73125,275.12256 C135.73125,274.244392 136.61375,273.533852 137.70375,273.533852 C138.79375,273.533852 139.67875,274.244392 139.67875,275.12256" id="Fill-151" fill="#C98429" mask="url(#mask-2)"></path>
                    <path d="M139.67875,269.647649 C139.67875,270.525817 138.79375,271.236357 137.70375,271.236357 C136.61375,271.236357 135.73125,270.525817 135.73125,269.647649 C135.73125,268.769482 136.61375,268.058942 137.70375,268.058942 C138.79375,268.058942 139.67875,268.769482 139.67875,269.647649" id="Fill-152" fill="#C98429" mask="url(#mask-2)"></path>
                    <path d="M139.67875,264.172739 C139.67875,265.050906 138.79375,265.761446 137.70375,265.761446 C136.61375,265.761446 135.73125,265.050906 135.73125,264.172739 C135.73125,263.294572 136.61375,262.584032 137.70375,262.584032 C138.79375,262.584032 139.67875,263.294572 139.67875,264.172739" id="Fill-153" fill="#C98429" mask="url(#mask-2)"></path>
                    <path d="M118.7285,280.303497 C118.7285,281.181664 117.8435,281.892204 116.7535,281.892204 C115.6635,281.892204 114.781,281.181664 114.781,280.303497 C114.781,279.425329 115.6635,278.714789 116.7535,278.714789 C117.8435,278.714789 118.7285,279.425329 118.7285,280.303497" id="Fill-154" fill="#C98429" mask="url(#mask-2)"></path>
                    <path d="M118.7285,274.95143 C118.7285,275.829597 117.8435,276.540137 116.7535,276.540137 C115.6635,276.540137 114.781,275.829597 114.781,274.95143 C114.781,274.073262 115.6635,273.362722 116.7535,273.362722 C117.8435,273.362722 118.7285,274.073262 118.7285,274.95143" id="Fill-155" fill="#C98429" mask="url(#mask-2)"></path>
                    <path d="M118.7285,291.00738 C118.7285,291.885548 117.8435,292.596087 116.7535,292.596087 C115.6635,292.596087 114.781,291.885548 114.781,291.00738 C114.781,290.129213 115.6635,289.418673 116.7535,289.418673 C117.8435,289.418673 118.7285,290.129213 118.7285,291.00738" id="Fill-156" fill="#C98429" mask="url(#mask-2)"></path>
                    <path d="M118.7285,285.655563 C118.7285,286.533731 117.8435,287.244271 116.7535,287.244271 C115.6635,287.244271 114.781,286.533731 114.781,285.655563 C114.781,284.777396 115.6635,284.066856 116.7535,284.066856 C117.8435,284.066856 118.7285,284.777396 118.7285,285.655563" id="Fill-157" fill="#C98429" mask="url(#mask-2)"></path>
                    <path d="M118.7285,264.247546 C118.7285,265.125713 117.8435,265.836253 116.7535,265.836253 C115.6635,265.836253 114.781,265.125713 114.781,264.247546 C114.781,263.369379 115.6635,262.658839 116.7535,262.658839 C117.8435,262.658839 118.7285,263.369379 118.7285,264.247546" id="Fill-158" fill="#C98429" mask="url(#mask-2)"></path>
                    <path d="M118.7285,258.895729 C118.7285,259.773897 117.8435,260.484437 116.7535,260.484437 C115.6635,260.484437 114.781,259.773897 114.781,258.895729 C114.781,258.017562 115.6635,257.307022 116.7535,257.307022 C117.8435,257.307022 118.7285,258.017562 118.7285,258.895729" id="Fill-159" fill="#C98429" mask="url(#mask-2)"></path>
                    <path d="M118.7285,269.599613 C118.7285,270.47778 117.8435,271.18832 116.7535,271.18832 C115.6635,271.18832 114.781,270.47778 114.781,269.599613 C114.781,268.721446 115.6635,268.010906 116.7535,268.010906 C117.8435,268.010906 118.7285,268.721446 118.7285,269.599613" id="Fill-160" fill="#C98429" mask="url(#mask-2)"></path>
                    <path d="M108.6335,280.511905 C108.6335,281.390072 107.7485,282.100612 106.6585,282.100612 C105.5685,282.100612 104.686,281.390072 104.686,280.511905 C104.686,279.633738 105.5685,278.923198 106.6585,278.923198 C107.7485,278.923198 108.6335,279.633738 108.6335,280.511905" id="Fill-161" fill="#C98429" mask="url(#mask-2)"></path>
                    <path d="M108.6335,286.07238 C108.6335,286.950548 107.7485,287.661087 106.6585,287.661087 C105.5685,287.661087 104.686,286.950548 104.686,286.07238 C104.686,285.194213 105.5685,284.483673 106.6585,284.483673 C107.7485,284.483673 108.6335,285.194213 108.6335,286.07238" id="Fill-162" fill="#C98429" mask="url(#mask-2)"></path>
                    <path d="M108.6335,274.95143 C108.6335,275.829597 107.7485,276.540137 106.6585,276.540137 C105.5685,276.540137 104.686,275.829597 104.686,274.95143 C104.686,274.073262 105.5685,273.362722 106.6585,273.362722 C107.7485,273.362722 108.6335,274.073262 108.6335,274.95143" id="Fill-163" fill="#C98429" mask="url(#mask-2)"></path>
                    <path d="M108.6335,269.391205 C108.6335,270.269372 107.7485,270.979912 106.6585,270.979912 C105.5685,270.979912 104.686,270.269372 104.686,269.391205 C104.686,268.513037 105.5685,267.802497 106.6585,267.802497 C107.7485,267.802497 108.6335,268.513037 108.6335,269.391205" id="Fill-164" fill="#C98429" mask="url(#mask-2)"></path>
                    <path d="M108.6335,263.830729 C108.6335,264.708897 107.7485,265.419437 106.6585,265.419437 C105.5685,265.419437 104.686,264.708897 104.686,263.830729 C104.686,262.952562 105.5685,262.242022 106.6585,262.242022 C107.7485,262.242022 108.6335,262.952562 108.6335,263.830729" id="Fill-165" fill="#C98429" mask="url(#mask-2)"></path>
                    <path d="M164.0275,205.758852 L80.1675,205.758852 L80.1675,203.256951 L164.0275,203.256951 L164.0275,205.758852 Z" id="Fill-166" fill="#B6B28E" mask="url(#mask-2)"></path>
                </g>
            </g>
        </g>
    </g>
</svg>