<?xml version="1.0" encoding="utf-8"?>
<!-- Generator: Adobe Illustrator 19.1.0, SVG Export Plug-In . SVG Version: 6.00 Build 0)  -->
<!DOCTYPE svg PUBLIC "-//W3C//DTD SVG 1.1//EN" "http://www.w3.org/Graphics/SVG/1.1/DTD/svg11.dtd">
<svg version="1.1" id="Layer_1" xmlns="http://www.w3.org/2000/svg" xmlns:xlink="http://www.w3.org/1999/xlink" x="0px" y="0px"
	 viewBox="0 0 240.4 241.6" enable-background="new 0 0 240.4 241.6" xml:space="preserve">
<g id="GlvUC3_1_">
	<g>
		<path d="M182,3c0,12.9,0,25.1,0,37.9c-6.4,0-12.7,0-18.9,0c-2.9,0-5.9-0.1-8.7,0.3c-10.3,1.6-14.8,5.9-15.4,16.2
			c-0.5,10.2-0.1,20.5-0.1,31.3c13.9,0,27.6,0,41.9,0c-1.3,10.2-2.5,19.7-3.7,29.2c-0.4,3.2-1.2,6.4-1.3,9.6
			c-0.1,3.5-1.8,3.9-4.6,3.9c-10.6-0.1-21.1,0-32.2,0c0,36.5,0,72.6,0,109c-14.9,0-29.2,0-44.1,0c0-36.1,0-72.3,0-108.9
			c-12.5,0-24.4,0-36.6,0c0-14.2,0-28,0-42.4c11.9,0,23.9,0,36.5,0c0-7.2-0.3-13.7,0.1-20.3c0.5-9.9,0.2-20.1,2.3-29.7
			c4.8-20.8,18.9-32.9,39.6-36.7C151.7-0.2,166.7,1.5,182,3z"/>
	</g>
</g>
</svg>
