<?xml version="1.0" encoding="utf-8"?>
<!-- Generator: Adobe Illustrator 19.1.0, SVG Export Plug-In . SVG Version: 6.00 Build 0)  -->
<!DOCTYPE svg PUBLIC "-//W3C//DTD SVG 1.1//EN" "http://www.w3.org/Graphics/SVG/1.1/DTD/svg11.dtd">
<svg version="1.1" id="Layer_1" xmlns="http://www.w3.org/2000/svg" xmlns:xlink="http://www.w3.org/1999/xlink" x="0px" y="0px"
	 viewBox="0 0 238.2 67.1" enable-background="new 0 0 238.2 67.1" xml:space="preserve">
<g>
	<path fill="#FFFFFF" d="M52.3,17v33.1h0v4c0,1.7,0.6,2.2,1.3,2.2c0.8,0,1.4-0.7,1.4-2.2v-4.2h0V17c0-1.7-0.6-2.2-1.3-2.2
		C52.9,14.8,52.3,15.5,52.3,17z"/>
	<path fill="#FFFFFF" d="M32.8,39.6H19.6v0h-1.8L17.9,17h5.3c1.1,0,1.5-0.5,1.5-1c0-0.6-0.5-1.1-1.5-1.1h-5.4l-0.1-2.1
		c0-5.4,0.3-8.1,1.5-9.6c1-1,2.3-1.2,4.5-1.6l1.9-0.2c0.2-0.4,0.1-1.1-0.1-1.3h-8.2c-2.6,0-4.9,0.9-6.5,2.9c-1.7,2-2.9,5.2-2.9,9.9
		v0.8c0,0.2,0,0.3,0,0.5v0.8H3.5c-1.1,0-1.5,0.5-1.5,1.1c0,0.6,0.5,1.1,1.5,1.1H8v0.1v22.5H3.3c-1.4,0-1.8,0.6-1.8,1.3
		c0,0.8,0.6,1.4,1.8,1.4H8v12c0,5.3-0.3,8.1-1.5,9.6c-1,1-2.3,1.2-4.5,1.6l-1.9,0.2c-0.2,0.5-0.1,1.1,0.1,1.3h8.2
		c2.6,0,4.9-0.9,6.5-2.9c1.7-2,2.9-5.2,2.9-9.9v-0.9c0-0.1,0-0.3,0-0.4l0-10.7h2v0h13c1.4,0,1.9-0.6,1.9-1.3
		C34.6,40.2,34,39.6,32.8,39.6z"/>
	<path fill="#FFFFFF" d="M38.8,22.7v31.5c0,4.7-1.2,7.9-2.9,9.9c-1.6,2-3.9,2.9-6.5,2.9H22c-0.2-0.3-0.3-0.9-0.1-1.3l1.9-0.2
		c2.2-0.4,3.6-0.6,4.5-1.6c1.2-1.5,1.5-4.3,1.5-9.6V29.1c0-2.3,1.1-4.1,2.9-5.1C34.8,22.7,36.5,22.7,38.8,22.7z"/>
	<g>
		<path fill="#FFFFFF" d="M62.3,36.2l0.7-0.1c1.4-0.2,1.4-0.3,1.4-4V19.8c0-3.5,0-3.7-1.4-4l-0.7-0.1v-0.9H76
			c0.2,1.7,0.3,3.7,0.3,5.5l-1.1,0.1c-0.6-3.2-0.8-4.3-4.6-4.3h-2.3v9.4h2.3c2.3,0,2.9,0,3.1-1.4l0.2-1.2h0.8v6.8h-0.8l-0.1-1.3
			c-0.2-1.3-1-1.3-3.1-1.3h-2.3v5.1c0,3.6,0,3.7,1.4,4l0.7,0.1v0.9h-8V36.2z"/>
		<path fill="#FFFFFF" d="M77.8,36.2l0.7-0.1c1.4-0.3,1.4-0.2,1.4-4V19.8c0-3.3,0-3.7-1.4-3.9l-0.7-0.1v-0.9h8v0.9l-0.7,0.1
			c-1.4,0.2-1.4,0.6-1.4,3.9v15.6c0.9,0.2,1.8,0.5,2.7,0.5c4.2,0,4.2-2.3,5-5.1l1.1,0.2c-0.2,2.2-0.4,4-1,6.1H77.8V36.2z"/>
		<path fill="#FFFFFF" d="M99.8,32.1c0,3.3,0,3.7,1.4,4l0.7,0.1v0.9h-8v-0.9l0.7-0.1c1.4-0.2,1.4-0.6,1.4-4V19.9c0-3.4,0-3.8-1.4-4
			l-0.7-0.1v-0.9h8v0.9l-0.7,0.1c-1.4,0.2-1.4,0.6-1.4,4V32.1z"/>
		<path fill="#FFFFFF" d="M103.2,36.2l0.9-0.1c1.3-0.2,1.3-1.4,1.3-5.9V14.9c0.3-0.1,1.2-0.2,1.4-0.2L120,30.8v-9.1
			c0-5.5-0.2-5.7-1.8-5.9l-0.9-0.1v-0.9h6.6v0.9l-0.9,0.1c-1.3,0.2-1.3,1.4-1.3,5.9v15.3c-0.3,0.1-1.2,0.3-1.5,0.3l-13.1-16v9
			c0,5.3,0.2,5.5,1.8,5.8l0.9,0.1v0.9h-6.6V36.2z"/>
		<path fill="#FFFFFF" d="M130.3,16.2h-1.2c-3.3,0-3.7,0.9-4.4,4.5h-1.1c0-0.5,0.3-5,0.4-5.8h16.4c0.1,0.7,0.4,5.2,0.4,5.8h-1.1
			c-0.8-3.6-1.1-4.5-4.4-4.5h-1.2v16.1c0,3.4,0,3.6,1.9,3.9l0.7,0.1v0.9h-9.1v-0.9l0.7-0.1c1.9-0.3,1.9-0.5,1.9-3.9V16.2z"/>
		<path fill="#FFFFFF" d="M152.1,19.9c0-3.4,0-3.8-1.4-4l-0.7-0.1v-0.9h8v0.9l-0.7,0.1c-1.4,0.2-1.4,0.6-1.4,4v4.9h8.9v-4.9
			c0-3.4,0-3.8-1.4-4l-0.7-0.1v-0.9h8v0.9l-0.7,0.1c-1.4,0.2-1.4,0.6-1.4,4v12.3c0,3.4,0,3.8,1.4,4l0.7,0.1v0.9h-8v-0.9l0.7-0.1
			c1.4-0.2,1.4-0.6,1.4-4v-5.9h-8.9v5.9c0,3.3,0,3.7,1.4,4l0.7,0.1v0.9h-8v-0.9l0.7-0.1c1.4-0.2,1.4-0.6,1.4-4V19.9z"/>
		<path fill="#FFFFFF" d="M179.2,32.1c0,3.3,0,3.7,1.4,4l0.7,0.1v0.9h-8v-0.9l0.7-0.1c1.4-0.2,1.4-0.6,1.4-4V19.9c0-3.4,0-3.8-1.4-4
			l-0.7-0.1v-0.9h8v0.9l-0.7,0.1c-1.4,0.2-1.4,0.6-1.4,4V32.1z"/>
		<path fill="#FFFFFF" d="M183,36.2l0.7-0.1c1.4-0.3,1.4-0.2,1.4-4V19.8c0-3.3,0-3.7-1.4-3.9l-0.7-0.1v-0.9h8v0.9l-0.7,0.1
			c-1.4,0.2-1.4,0.6-1.4,3.9v15.6c0.9,0.2,1.8,0.5,2.7,0.5c4.2,0,4.2-2.3,5-5.1l1.1,0.2c-0.2,2.2-0.4,4-1,6.1H183V36.2z"/>
		<path fill="#FFFFFF" d="M198.1,36.2l0.7-0.1c1.4-0.3,1.4-0.2,1.4-4V19.8c0-3.3,0-3.7-1.4-3.9l-0.7-0.1v-0.9h8v0.9l-0.7,0.1
			c-1.4,0.2-1.4,0.6-1.4,3.9v15.6c0.9,0.2,1.8,0.5,2.7,0.5c4.2,0,4.2-2.3,5-5.1l1.1,0.2c-0.2,2.2-0.4,4-1,6.1h-13.7V36.2z"/>
		<path fill="#FFFFFF" d="M225.2,20.8c-0.4-1.7-0.9-5.1-4.2-5.1c-1.7,0-3,1.3-3,3.4c0,5.2,9.4,4.8,9.4,12c0,4.8-3.7,6.5-7.3,6.5
			c-2.6,0-4.3-0.8-5.2-1.3c-0.7-2.1-0.9-3.6-0.9-6.3l1.4-0.3c0.4,2,1.4,6.7,5.2,6.7c1.9,0,3.1-1.5,3.1-3.7c0-5.7-9.2-5.3-9.2-12.1
			c0-4.3,2.8-6.1,6.6-6.1c2.2,0,3.5,0.5,4.6,1.2c0.2,1.6,0.3,3.4,0.3,5.1H225.2z"/>
		<path fill="#FFFFFF" d="M64.3,48.6c0.6-1,1.4-1.6,2.6-1.8c0.5-0.1,0.9,0,1.4,0.1v1.4c-0.4-0.1-0.8-0.1-1.2-0.1
			c-1,0.1-2,0.6-2.4,1.5c-0.3,0.6-0.3,1.2-0.4,1.8v3.9h-1.6v-8.6h1.6V48.6z"/>
		<path fill="#FFFFFF" d="M79.9,51.7c0,2,1.2,3,3.2,3c0.8,0,1.7-0.1,2.4-0.7c0.3-0.3,0.4-0.6,0.5-1h1.7c-0.1,0.8-0.4,1.4-1.1,1.9
			c-1,0.7-2.3,0.9-3.5,0.9c-3,0-4.9-1.4-4.9-4.6c0-1.1,0.4-2.3,1.2-3.1c1.1-1,2.6-1.4,4-1.4c1.6,0,3.3,0.7,4,2.2
			c0.4,0.8,0.4,1.8,0.4,2.8H79.9z M85.8,49c-0.5-0.8-1.5-1.2-2.4-1.2c-1.9,0-3.3,0.8-3.5,2.7h6.3C86.2,50,86.2,49.5,85.8,49z"/>
		<path fill="#FFFFFF" d="M104.9,48.3c-0.5-0.4-1.2-0.5-1.8-0.5c-0.8,0-2.5,0.1-2.5,1.3c0,1,1.1,1.1,1.9,1.3l1.3,0.2
			c1.5,0.2,3.6,0.6,3.6,2.6c0,1-0.6,1.8-1.5,2.2c-0.9,0.4-2,0.5-3,0.5c-1.1,0-2.7-0.1-3.5-1c-0.5-0.5-0.6-1.1-0.7-1.8h1.7
			c0.1,0.4,0.2,0.7,0.5,1c0.5,0.6,1.3,0.7,2.1,0.7c1,0,2.7-0.2,2.7-1.5c0-1.1-1.3-1.3-2.1-1.4l-1.2-0.2c-1.5-0.2-3.4-0.6-3.4-2.4
			c0-0.9,0.6-1.7,1.4-2.1c0.9-0.5,1.9-0.6,2.9-0.6c1,0,2.2,0.2,3.1,0.8c0.6,0.4,0.7,1.1,0.7,1.8h-1.6
			C105.3,48.9,105.2,48.6,104.9,48.3z"/>
		<path fill="#FFFFFF" d="M127.4,47.9c0.9,0.8,1.4,2.1,1.4,3.3c0,1.3-0.4,2.5-1.4,3.3c-1.1,1-2.6,1.2-4,1.2c-1.4,0-2.9-0.3-4-1.2
			c-0.9-0.8-1.4-2.1-1.4-3.3c0-1.2,0.4-2.5,1.4-3.3c1.1-1,2.6-1.2,4-1.2C124.8,46.7,126.3,46.9,127.4,47.9z M119.7,51.2
			c0,2.3,1.6,3.5,3.7,3.5c2.2,0,3.7-1.2,3.7-3.5c0-2.3-1.6-3.5-3.7-3.5C121.3,47.8,119.7,49,119.7,51.2z"/>
		<path fill="#FFFFFF" d="M149.2,55.5h-1.5V54c-0.2,0.4-0.5,0.8-0.9,1.1c-0.7,0.6-1.7,0.7-2.6,0.7c-1.3,0-2.7-0.5-3.4-1.7
			c-0.5-0.8-0.5-1.8-0.5-2.7v-4.5h1.6v4.6c0,0.8,0,1.7,0.6,2.3c0.5,0.6,1.4,0.8,2.2,0.8c0.7,0,1.5-0.3,2.1-0.8c0.9-0.8,1-2.3,1-3.4
			v-3.6h1.5V55.5z"/>
		<path fill="#FFFFFF" d="M162.9,48.6c0.6-1,1.4-1.6,2.6-1.8c0.5-0.1,0.9,0,1.4,0.1v1.4c-0.4-0.1-0.8-0.1-1.2-0.1
			c-1,0.1-2,0.6-2.4,1.5c-0.3,0.6-0.3,1.2-0.4,1.8v3.9h-1.6v-8.6h1.6V48.6z"/>
		<path fill="#FFFFFF" d="M185,49.7c-0.1-1.5-1.4-2-2.7-2c-2,0-3.4,1.4-3.4,3.4c0,2,1.3,3.5,3.4,3.5c1.3,0,2.4-0.6,2.6-2l1.6,0
			c-0.1,0.6-0.3,1.3-0.8,1.8c-0.9,1-2.2,1.3-3.5,1.3c-2.7,0-4.9-1.7-4.9-4.6c0-2.9,2.2-4.6,5-4.6c1.3,0,2.7,0.2,3.6,1.2
			c0.4,0.5,0.6,1.1,0.7,1.8L185,49.7z"/>
		<path fill="#FFFFFF" d="M199.1,51.7c0,2,1.2,3,3.2,3c0.8,0,1.7-0.1,2.4-0.7c0.3-0.3,0.4-0.6,0.5-1h1.7c-0.1,0.8-0.4,1.4-1.1,1.9
			c-1,0.7-2.3,0.9-3.5,0.9c-3,0-4.9-1.4-4.9-4.6c0-1.1,0.4-2.3,1.2-3.1c1.1-1,2.6-1.4,4-1.4c1.6,0,3.3,0.7,4,2.2
			c0.4,0.8,0.4,1.8,0.4,2.8H199.1z M205.1,49c-0.5-0.8-1.5-1.2-2.4-1.2c-1.9,0-3.3,0.8-3.5,2.7h6.3C205.4,50,205.4,49.5,205.1,49z"
			/>
		<path fill="#FFFFFF" d="M224.1,48.3c-0.5-0.4-1.2-0.5-1.8-0.5c-0.8,0-2.5,0.1-2.5,1.3c0,1,1.1,1.1,1.9,1.3l1.3,0.2
			c1.5,0.2,3.6,0.6,3.6,2.6c0,1-0.6,1.8-1.5,2.2c-0.9,0.4-2,0.5-3,0.5c-1.1,0-2.7-0.1-3.5-1c-0.5-0.5-0.6-1.1-0.7-1.8h1.7
			c0.1,0.4,0.2,0.7,0.5,1c0.5,0.6,1.3,0.7,2.1,0.7c1,0,2.7-0.2,2.7-1.5c0-1.1-1.3-1.3-2.1-1.4l-1.2-0.2c-1.5-0.2-3.4-0.6-3.4-2.4
			c0-0.9,0.6-1.7,1.4-2.1c0.9-0.5,1.9-0.6,2.9-0.6c1,0,2.2,0.2,3.1,0.8c0.6,0.4,0.7,1.1,0.7,1.8h-1.6
			C224.5,48.9,224.4,48.6,224.1,48.3z"/>
	</g>
	<g>
		<g>
			<path fill="#FFFFFF" d="M235.6,46.5c1.5,0,2.7,1.2,2.7,2.7c0,1.5-1.2,2.7-2.7,2.7c-1.5,0-2.7-1.2-2.7-2.7
				C232.9,47.7,234.1,46.5,235.6,46.5L235.6,46.5z M235.6,46.9c-1.2,0-2.2,1-2.2,2.3c0,1.3,1,2.3,2.2,2.3c1.2,0,2.2-1,2.2-2.3
				C237.7,47.9,236.8,46.9,235.6,46.9L235.6,46.9z M235,50.8h-0.5v-3c0.3,0,0.5-0.1,0.9-0.1c0.5,0,0.8,0.1,0.9,0.2
				c0.2,0.1,0.3,0.3,0.3,0.6c0,0.4-0.3,0.6-0.6,0.7v0c0.3,0,0.4,0.3,0.5,0.7c0.1,0.5,0.1,0.6,0.2,0.7h-0.5c-0.1-0.1-0.1-0.4-0.2-0.8
				c-0.1-0.4-0.3-0.5-0.6-0.5H235V50.8z M235,49.1h0.3c0.4,0,0.7-0.1,0.7-0.5c0-0.3-0.2-0.5-0.7-0.5c-0.2,0-0.3,0-0.3,0V49.1z"/>
		</g>
	</g>
</g>
</svg>
