<?xml version="1.0" encoding="utf-8"?>
<!-- Generator: Adobe Illustrator 19.1.0, SVG Export Plug-In . SVG Version: 6.00 Build 0)  -->
<!DOCTYPE svg PUBLIC "-//W3C//DTD SVG 1.1//EN" "http://www.w3.org/Graphics/SVG/1.1/DTD/svg11.dtd">
<svg version="1.1" id="Layer_1" xmlns="http://www.w3.org/2000/svg" xmlns:xlink="http://www.w3.org/1999/xlink" x="0px" y="0px"
	 viewBox="0 0 240.4 241.6" enable-background="new 0 0 240.4 241.6" xml:space="preserve">
<g id="UOGwPG_1_">
	<g>
		<path d="M120.2,1.1c25,0,50,0.3,75-0.1c21.4-0.3,39.9,15.9,44.1,34.6c0.8,3.7,1.4,7.6,1.4,11.4c0.1,49.5,0.1,99,0,148.5
			c0,20.8-13.2,38.6-32.5,44.3c-3.8,1.1-7.8,1.8-11.8,1.8c-50.8,0.1-101.7,0.1-152.5,0.1c-23.8,0-44.4-20.9-44.3-46.1
			c0.1-25.7,0-51.3,0-77c0-23.7-0.1-47.3,0-71c0.1-15.7,6.3-28.4,18.9-37.8C26.2,4,34.7,1.1,44.2,1.1C69.5,1.1,94.8,1.1,120.2,1.1z
			 M128.6,201.9c0-2.4,0-4.2,0-6.1c0-16.8,0-33.7,0-50.5c0-2.2,0.1-4.3,0.2-6.5c0.2-3.8,1.5-7.1,3.6-10.2
			c4.8-7.3,12.3-10.5,20.7-8.7c7.6,1.6,12.4,7,13.6,15.9c0.6,4.3,0.9,8.6,1,12.9c0.1,15.8,0,31.7,0,47.5c0,1.8,0,3.6,0,5.6
			c11.9,0,23.1,0,34.6,0c0.1-1.6,0.3-2.9,0.3-4.2c0-19.3,0.1-38.7,0-58c0-4.8-0.4-9.6-1.2-14.4c-1.3-7.9-4.4-14.9-9.7-21
			c-13.4-15.6-44.8-18.5-59.9,1.9c-0.7,0.9-1.6,1.7-2.4,2.6c-0.3-0.1-0.6-0.3-1-0.4c0-4.4,0-8.9,0-13.4c-11.8,0-23,0-34.1,0
			c-1,5.8-0.7,103.8,0.3,107.1C105.7,201.9,116.8,201.9,128.6,201.9z M72.5,94.7c-11.4,0-22.8,0-34.4,0c0,35.9,0,71.4,0,107.1
			c11.6,0,22.8,0,34.4,0C72.5,166,72.5,130.5,72.5,94.7z M54.6,78.7c2.3-0.2,4-0.2,5.6-0.5C69.5,76.3,75,70,75.3,59.8
			c0.2-8.2-6.6-16.1-14.7-17.1c-3.4-0.5-7-0.5-10.4,0c-8.3,1.2-14.1,8-14.7,16.5c-0.6,8.3,4.5,16.1,12.4,18.4
			C50.2,78.4,52.8,78.4,54.6,78.7z"/>
	</g>
</g>
</svg>
