<?xml version="1.0" encoding="utf-8"?>
<!-- Generator: Adobe Illustrator 19.1.0, SVG Export Plug-In . SVG Version: 6.00 Build 0)  -->
<!DOCTYPE svg PUBLIC "-//W3C//DTD SVG 1.1//EN" "http://www.w3.org/Graphics/SVG/1.1/DTD/svg11.dtd">
<svg version="1.1" id="Layer_1" xmlns="http://www.w3.org/2000/svg" xmlns:xlink="http://www.w3.org/1999/xlink" x="0px" y="0px"
	 viewBox="0 0 240.4 241.6" enable-background="new 0 0 240.4 241.6" xml:space="preserve">
<g id="bUCKDq_1_">
	<g>
		<path d="M4.2,203.7c25.1,0.6,47.9-5.2,68.8-21.5c-10.7-0.6-19.8-3.6-27.6-9.5c-7.9-6-13.9-13.4-16.8-23.1
			c6.7-0.3,13.1-0.6,19.5-0.9c-22.5-8.3-35.4-23.3-37-47.8c7,1.9,13.4,3.7,19.8,5.5C11,88,6.2,66.9,17.6,41.4
			c26.5,30.9,59.3,47.8,98.3,50.5c1-9,0.8-18,3.1-26.1c9.4-32.6,52.9-44.1,77.6-20.8c2.4,2.3,4.5,3.1,7.5,2
			c8.4-3.1,16.9-6.1,25.4-9.1c-3.2,10-9.7,17.6-18.1,24.7c4-0.8,8-1.4,11.9-2.4c3.9-1,7.8-2.5,11.6-3.7c0.4,0.4,0.7,0.9,1.1,1.3
			c-6.1,6.1-11.9,12.6-18.3,18.3c-3.3,3-5,5.6-5,10.3c-0.4,43.1-17.7,78.7-49.8,107c-19.8,17.4-43.6,26.4-69.7,29.5
			c-30.8,3.7-59.9-1.8-86.8-17.6C5.8,204.7,5,204.2,4.2,203.7z"/>
	</g>
</g>
</svg>
