<?xml version="1.0" encoding="utf-8"?>
<!-- Generator: Adobe Illustrator 19.1.0, SVG Export Plug-In . SVG Version: 6.00 Build 0)  -->
<!DOCTYPE svg PUBLIC "-//W3C//DTD SVG 1.1//EN" "http://www.w3.org/Graphics/SVG/1.1/DTD/svg11.dtd">
<svg version="1.1" id="Layer_1" xmlns="http://www.w3.org/2000/svg" xmlns:xlink="http://www.w3.org/1999/xlink" x="0px" y="0px"
	 viewBox="0 0 240.4 241.6" enable-background="new 0 0 240.4 241.6" xml:space="preserve">
<g id="H0lWaM_1_">
	<g>
		<path d="M239.8,120.3c0,26,0.6,52-0.2,78c-0.7,23-20,41.5-43,41.6c-51,0.3-102,0.3-153,0c-23.3-0.2-42.7-18.9-43-42.6
			C0,145.7,0,94,0.7,42.3C1,19.2,20.2,0.5,43.2,0.3c51.3-0.4,102.7-0.3,154,0c23.1,0.1,43.4,20.9,43,45.6
			c-0.4,24.8-0.1,49.7-0.1,74.5C240,120.3,239.9,120.3,239.8,120.3z M40.8,175.7c1.9,1.3,2.7,1.8,3.5,2.3c31.9,17,64.3,17.3,95-1.4
			c29.2-17.8,43.5-45.3,44.4-79.6c0.1-3.3,1.1-5.3,3.6-7.5c4.4-3.8,8.1-8.2,12.2-12.4c-0.3-0.3-0.6-0.6-0.9-0.9
			c-4.9,1.3-9.9,2.7-14.8,4c4.9-5.1,9.4-9.9,11.2-16.9c-5.6,2.1-10.8,3.8-15.9,5.8c-3,1.2-5.1,0.5-7.6-1.7
			c-17.1-14.9-45.7-6.5-51.8,15.2c-1.5,5.4-1.5,11.3-2.2,17.4c-26.6-2-48.7-13.6-66.8-34.4c-7.3,17.1-5.3,31.5,7.8,44.2
			c-4.4-1.2-8.7-2.3-13.4-3.6c0.9,16.6,10.2,26.2,24.4,32.7c-3.5,0-7.1,0-11.2,0c2.2,7,5.8,12.5,11.4,15.9
			c5.3,3.3,11.4,5.4,17.1,8.1C73.8,172.8,58.7,176.6,40.8,175.7z"/>
	</g>
</g>
</svg>
